<?xml version="1.0" standalone="no"?>
<!DOCTYPE svg PUBLIC "-//W3C//DTD SVG 20010904//EN"
 "http://www.w3.org/TR/2001/REC-SVG-20010904/DTD/svg10.dtd">
<svg version="1.0" xmlns="http://www.w3.org/2000/svg"
 width="1431.000000pt" height="3454.000000pt" viewBox="0 0 1431.000000 3454.000000"
 preserveAspectRatio="xMidYMid meet">

<g transform="translate(0.000000,3454.000000) scale(0.100000,-0.100000)"
fill="#000000" stroke="none">
<path d="M8763 34303 c9 -2 23 -2 30 0 6 3 -1 5 -18 5 -16 0 -22 -2 -12 -5z"/>
<path d="M8828 34293 c12 -2 30 -2 40 0 9 3 -1 5 -23 4 -22 0 -30 -2 -17 -4z"/>
<path d="M8938 34273 c6 -2 18 -2 25 0 6 3 1 5 -13 5 -14 0 -19 -2 -12 -5z"/>
<path d="M8783 34242 c-18 -2 -33 -8 -33 -13 0 -6 28 -23 63 -39 63 -29 78
-33 110 -31 15 1 15 4 5 21 -7 11 -17 20 -22 20 -5 0 -19 9 -31 20 -24 23 -44
27 -92 22z"/>
<path d="M10655 33730 c-16 -9 -41 -23 -55 -32 -23 -15 -51 -20 -207 -33 -29
-2 -55 0 -58 5 -3 5 -12 7 -20 3 -9 -3 -21 0 -28 6 -11 8 -24 3 -55 -21 -23
-18 -42 -36 -42 -40 0 -4 -4 -8 -10 -8 -6 0 -6 9 0 25 12 31 4 31 -57 -1 -28
-14 -75 -28 -109 -31 -75 -8 -106 -30 -140 -100 -24 -53 -27 -56 -40 -38 -13
17 -14 17 -14 2 0 -10 11 -22 25 -29 29 -13 39 -7 139 80 124 108 179 125 151
47 -8 -22 -14 -66 -15 -98 0 -64 3 -65 72 -32 26 12 29 11 48 -12 11 -14 20
-30 20 -34 0 -5 6 -9 14 -9 8 0 16 -6 19 -12 2 -7 8 -10 12 -6 4 4 -7 25 -25
48 -18 23 -30 43 -27 47 3 3 36 -11 72 -31 36 -19 65 -31 65 -26 0 6 11 15 25
20 14 5 25 14 25 20 0 6 24 10 55 10 l55 0 -25 -47 c-13 -27 -27 -66 -31 -89
-5 -34 -1 -48 25 -89 32 -50 39 -71 21 -60 -5 3 -10 1 -10 -5 0 -7 -7 -10 -15
-6 -11 4 -10 -1 5 -22 10 -15 22 -52 25 -82 l6 -55 -38 43 c-21 23 -45 42 -53
42 -12 -1 -11 -3 3 -11 9 -5 17 -16 17 -23 0 -8 7 -17 16 -20 11 -4 15 -14 11
-32 -4 -24 -2 -26 24 -22 22 4 29 1 29 -12 0 -30 47 -124 74 -149 30 -28 32
-23 12 22 -45 100 -65 233 -60 397 2 72 30 176 55 206 9 11 6 14 -17 14 -22 1
-16 5 30 21 62 21 90 37 148 82 45 36 53 55 34 76 -19 21 -19 21 126 27 72 4
114 1 129 -7 20 -10 25 -8 50 22 33 41 23 55 -47 64 -80 10 -248 14 -259 5
-18 -13 -59 -19 -69 -11 -20 16 -81 16 -111 1z"/>
<path d="M11290 33688 c-45 -13 -44 -11 -26 -45 8 -17 34 -39 58 -51 42 -21
138 -64 148 -66 3 -1 27 -10 54 -21 37 -14 52 -16 66 -7 14 9 32 8 77 -4 32
-8 68 -13 80 -11 12 2 24 0 25 -5 5 -14 42 -17 50 -4 16 23 7 36 -32 47 -22 7
-45 18 -51 26 -6 7 -19 13 -28 13 -10 0 -26 7 -37 15 -10 8 -29 15 -41 15 -12
0 -25 5 -28 10 -4 6 -15 8 -25 5 -10 -3 -27 -7 -37 -9 -10 -2 -31 -7 -47 -11
-38 -10 -32 12 12 40 17 11 31 24 32 28 0 5 -4 6 -9 3 -9 -6 -182 13 -191 21
-2 2 2 8 10 13 12 8 11 10 -5 9 -11 0 -36 -5 -55 -11z"/>
<path d="M9136 33592 c-9 -14 11 -27 89 -58 39 -15 82 -36 97 -47 23 -17 25
-22 12 -34 -8 -8 -14 -19 -14 -25 0 -11 -96 -3 -160 12 -19 5 -62 11 -95 14
-33 3 -69 7 -80 10 -11 2 -33 7 -50 11 l-30 6 25 -23 c14 -14 30 -33 36 -44 6
-10 43 -34 83 -54 66 -33 88 -58 45 -53 -10 1 -32 3 -49 4 -16 2 -38 6 -47 11
-10 5 -46 11 -80 13 l-63 5 45 -20 c25 -10 53 -19 63 -19 9 -1 17 -5 17 -10 0
-22 113 -46 136 -29 15 11 74 -22 74 -41 0 -9 -4 -10 -12 -3 -7 5 -24 13 -38
17 -23 7 -24 7 -8 -16 l15 -24 -114 4 c-105 3 -153 -2 -141 -15 3 -2 36 -7 74
-9 205 -14 209 -15 270 -46 61 -31 62 -31 137 -19 80 13 177 6 160 -11 -6 -6
-25 -11 -42 -11 -17 -1 -34 -5 -37 -10 -3 -4 -27 -8 -53 -8 -26 0 -71 -7 -99
-15 -28 -9 -62 -13 -76 -9 -13 3 -27 1 -30 -5 -4 -6 -26 -11 -49 -11 -23 0
-64 -6 -92 -13 -53 -14 -88 -11 -187 20 -48 15 -58 22 -58 40 0 16 -10 25 -35
34 -50 18 -45 37 11 41 23 2 84 46 84 62 0 9 -72 26 -83 19 -5 -3 -24 -5 -41
-5 -17 1 -40 -3 -51 -8 -27 -12 -126 -29 -120 -20 11 18 -104 56 -165 55 -59
-2 -121 -15 -115 -25 2 -4 19 -11 37 -15 18 -4 35 -9 38 -10 3 0 32 -7 65 -14
90 -19 93 -20 93 -44 0 -22 -4 -23 -87 -26 -92 -2 -121 -7 -121 -21 0 -5 7 -7
15 -4 8 4 23 3 33 -2 9 -4 20 -8 24 -8 3 -1 15 -10 25 -22 21 -24 75 -38 91
-22 12 12 55 1 47 -13 -4 -5 -16 -9 -27 -9 -21 0 -21 0 -2 -21 37 -41 62 -48
196 -58 54 -4 100 -10 104 -14 9 -9 8 -9 -111 -12 -163 -4 -282 -30 -322 -71
-15 -15 -9 -15 83 -9 96 6 100 6 140 -21 58 -38 50 -57 -32 -73 -35 -7 -67
-17 -70 -22 -3 -5 -25 -9 -49 -9 -24 0 -51 -3 -60 -6 -25 -10 49 -34 104 -34
69 0 37 -19 -60 -35 -46 -8 -100 -19 -119 -25 -19 -5 -67 -10 -107 -11 -41 -1
-80 -7 -89 -14 -16 -11 -8 -15 54 -29 73 -17 203 -22 216 -8 11 10 110 9 118
-2 3 -5 23 -1 45 9 21 10 67 28 101 40 l64 21 -29 19 c-29 20 -59 21 -80 3 -7
-5 -22 -8 -35 -6 -20 3 -17 7 26 36 34 22 53 29 61 22 7 -5 14 -7 17 -5 8 9
60 -14 54 -24 -9 -14 70 -39 118 -37 79 3 46 -51 -49 -80 -72 -22 -119 -39
-160 -59 -27 -13 -69 -26 -91 -30 -42 -6 -44 -5 -82 40 -10 12 -17 13 -35 3
-14 -7 -65 -11 -144 -9 -110 2 -128 0 -186 -24 -76 -30 -162 -57 -197 -61
-111 -13 -198 -27 -218 -35 -22 -9 -23 -11 -10 -32 14 -20 42 -42 94 -73 16
-9 10 -15 -44 -45 -34 -18 -62 -37 -62 -41 0 -13 12 -9 90 31 73 37 139 58
141 43 0 -4 2 -16 4 -26 5 -28 -4 -39 -21 -25 -12 10 -14 8 -12 -11 3 -23 -16
-37 -122 -85 -43 -19 -66 -33 -110 -66 -59 -44 -62 -44 -57 -13 3 16 8 38 13
49 12 33 -52 -51 -67 -87 -17 -43 -23 -47 -96 -83 -35 -16 -63 -34 -63 -38 0
-13 -57 -65 -78 -71 -18 -6 -33 9 -36 36 -1 4 -9 16 -18 27 -16 19 -16 22 7
53 14 18 30 43 36 56 7 12 16 22 22 22 5 0 32 20 60 44 29 24 72 54 97 66 57
28 55 27 40 45 -11 13 -20 10 -69 -25 -31 -22 -75 -58 -96 -80 -30 -31 -47
-40 -72 -40 -35 0 -116 -17 -148 -32 -11 -5 -44 -12 -74 -17 -29 -5 -57 -14
-61 -21 -6 -9 -9 -6 -12 11 -3 24 -5 24 -143 30 -77 3 -145 2 -151 -2 -6 -5
-14 -6 -17 -2 -4 3 -7 1 -7 -5 0 -22 -54 -7 -67 18 -18 36 -16 110 5 150 16
29 92 92 126 103 5 2 -1 17 -13 33 -21 28 -21 33 -8 71 7 22 13 58 13 79 -1
38 -2 39 -41 42 -33 2 -46 -3 -75 -30 -38 -35 -60 -76 -60 -111 -1 -12 -7 -33
-15 -47 l-13 -25 -13 30 c-12 28 -13 29 -16 8 -3 -13 -7 -23 -11 -23 -8 0 -29
-44 -41 -87 -10 -33 2 -63 24 -63 26 0 16 -24 -35 -80 -42 -47 -52 -53 -67
-44 -10 7 -17 20 -15 30 2 11 7 42 12 69 4 28 15 77 24 110 21 76 21 77 -9 69
-20 -5 -24 -3 -19 10 3 9 10 16 15 16 13 0 38 25 74 74 34 46 21 44 -57 -9
-106 -71 -158 -113 -196 -159 -11 -13 -10 -16 3 -16 9 0 13 -5 10 -10 -4 -6
-11 -8 -16 -5 -5 4 -9 2 -9 -3 0 -5 -10 -12 -22 -16 -16 -4 -19 -9 -11 -14 8
-5 1 -15 -21 -30 -26 -18 -35 -32 -39 -63 -4 -32 -16 -50 -62 -94 -51 -50 -71
-61 -99 -56 -5 1 -13 -4 -17 -11 -7 -10 -9 -9 -9 3 0 9 -7 22 -15 29 -12 10
-15 10 -15 -3 0 -8 -7 -21 -16 -28 -9 -7 -20 -22 -25 -34 -5 -11 -21 -35 -34
-54 l-25 -34 0 27 c0 25 -13 35 -24 17 -5 -8 -66 -22 -66 -15 0 2 9 19 20 39
11 19 17 35 14 35 -3 0 4 13 16 29 l21 30 -48 27 c-54 31 -85 59 -76 68 10 10
-6 7 -28 -4 -12 -7 -19 -21 -19 -40 0 -17 -4 -30 -9 -30 -13 0 -22 -87 -11
-114 16 -43 -20 -19 -40 26 l-18 40 -16 -33 c-9 -17 -16 -39 -16 -48 0 -33
-138 -89 -154 -62 -3 4 -16 6 -28 4 -13 -2 -42 0 -65 5 -24 6 -43 7 -43 3 0
-5 -19 -13 -42 -20 -24 -7 -51 -20 -60 -28 -9 -8 -22 -12 -27 -8 -6 3 -11 1
-11 -4 0 -16 -24 -9 -31 8 -4 10 -18 -2 -47 -41 -43 -57 -53 -88 -27 -88 18 0
20 -24 2 -38 -9 -8 -32 5 -90 49 -79 62 -100 66 -46 8 16 -18 36 -47 44 -66 8
-18 32 -55 55 -81 22 -27 40 -55 40 -64 0 -8 8 -23 19 -32 29 -26 80 -135 101
-215 20 -80 27 -92 39 -72 9 14 62 -127 69 -184 2 -16 8 -32 12 -35 5 -3 9
-24 8 -46 0 -23 3 -72 7 -110 6 -68 6 -69 -25 -99 l-31 -30 6 -100 c12 -196
13 -272 4 -455 -20 -425 -40 -639 -77 -816 -13 -60 -15 -104 -11 -175 11 -147
10 -923 -1 -1134 -21 -419 -84 -1051 -101 -1024 -4 7 -6 16 -3 20 2 4 6 34 9
66 3 32 12 123 20 203 8 80 17 215 20 300 l7 155 -30 -45 c-16 -25 -41 -57
-54 -72 -22 -22 -27 -40 -32 -110 -4 -46 -14 -134 -22 -197 -8 -62 -13 -115
-11 -118 3 -2 -2 -33 -9 -69 -8 -36 -12 -69 -10 -73 3 -4 -1 -44 -9 -88 -8
-44 -16 -102 -19 -129 -25 -253 -49 -380 -87 -462 -18 -39 -37 -68 -41 -66 -4
3 -8 -11 -8 -30 0 -19 -7 -42 -16 -51 -33 -32 -44 -100 -38 -233 2 -70 7 -143
10 -162 3 -19 8 -64 10 -100 2 -36 6 -83 9 -105 2 -22 7 -74 10 -115 3 -41 7
-86 10 -100 3 -14 7 -79 10 -145 3 -110 7 -173 20 -310 l4 -50 -10 50 c-34
175 -61 303 -69 320 -5 11 -11 34 -14 50 -7 32 -41 161 -83 310 -13 49 -41
135 -61 189 l-37 99 -6 -48 c-4 -41 4 -79 48 -224 88 -286 143 -554 178 -861
21 -184 20 -211 -5 -217 -11 -3 -20 -10 -20 -15 0 -5 -4 -6 -10 -3 -5 3 -10
-3 -10 -14 0 -12 -4 -21 -9 -21 -5 0 -12 -11 -15 -25 -4 -14 -11 -25 -16 -25
-5 0 -12 -17 -16 -37 -4 -21 -14 -43 -23 -50 -9 -7 -13 -13 -9 -13 8 0 -20
-99 -32 -115 -14 -19 -41 -115 -35 -124 3 -6 -5 -13 -19 -17 -24 -6 -41 -29
-31 -44 2 -4 -7 -7 -21 -7 -15 0 -30 -7 -35 -14 -8 -12 -10 -12 -18 0 -7 11
-11 10 -20 -5 -10 -18 -12 -18 -31 6 -12 14 -32 42 -46 63 -13 20 -29 37 -34
37 -6 0 -10 4 -10 10 0 5 -20 40 -45 76 -25 36 -53 80 -62 98 -9 17 -19 33
-23 36 -10 7 -64 104 -100 180 -17 36 -35 73 -41 82 -5 10 -9 25 -9 33 0 8 -4
15 -10 15 -5 0 -10 9 -10 19 0 11 -14 49 -30 87 -17 37 -28 69 -26 71 3 3 -10
37 -28 77 -18 40 -41 97 -51 127 -10 30 -24 66 -31 80 -7 15 -15 37 -18 50 -3
13 -19 62 -36 109 -17 47 -33 98 -35 114 -3 16 -6 31 -9 33 -3 3 0 17 6 32 5
14 12 35 14 46 2 11 8 21 14 23 5 2 10 12 10 23 0 11 7 22 15 25 8 4 15 15 15
26 0 10 4 17 9 13 5 -3 12 -1 16 4 3 5 30 22 60 36 l54 27 -63 54 c-35 30 -67
65 -70 77 -3 13 -17 29 -30 37 -14 7 -23 17 -20 21 3 5 -12 26 -33 48 -33 34
-76 91 -133 176 -8 12 -39 57 -67 99 -29 43 -53 81 -53 85 0 4 -8 16 -19 25
-16 14 -30 51 -35 91 -2 16 -58 99 -72 108 -8 4 -14 12 -14 18 0 5 -25 34 -55
64 -49 50 -54 59 -53 97 0 24 -9 93 -20 153 -22 119 -21 183 3 350 8 55 17
138 20 185 3 46 9 88 14 93 8 8 47 -157 58 -250 3 -29 10 -53 14 -53 5 0 8 3
7 8 -1 4 4 21 12 39 l14 31 59 -54 c33 -30 67 -54 76 -52 9 1 22 -1 29 -5 6
-5 12 -5 12 -1 0 4 11 -3 25 -16 14 -13 25 -21 25 -17 0 9 44 -37 77 -80 37
-49 155 -163 169 -163 16 0 61 73 68 113 6 34 1 42 -126 195 -180 216 -199
243 -184 264 13 17 31 19 54 5 6 -5 16 -6 21 -3 4 3 16 -3 26 -14 10 -11 21
-17 26 -15 4 3 10 1 14 -5 3 -6 24 -19 46 -30 28 -15 39 -17 40 -8 1 7 2 38 4
69 1 32 6 62 9 68 4 6 2 30 -5 53 -11 41 -21 273 -11 264 2 -3 18 13 34 35 24
33 32 38 44 28 8 -6 17 -10 19 -7 3 3 30 -20 60 -50 30 -31 55 -51 55 -46 0 5
7 0 15 -10 13 -17 15 -17 21 -3 3 9 3 22 -1 29 -4 7 3 2 14 -12 l21 -25 -10
29 c-15 42 -6 42 16 -1 10 -21 38 -71 62 -111 23 -41 42 -80 42 -88 0 -8 9
-22 21 -32 11 -9 36 -47 54 -83 40 -78 56 -82 104 -27 44 51 50 121 14 192
-24 48 -68 95 -89 96 -6 0 -19 11 -30 24 -10 14 -22 23 -26 20 -16 -10 -97 40
-147 90 -45 46 -107 156 -95 169 3 2 6 20 8 38 5 41 21 85 36 94 5 3 8 9 6 13
-2 4 1 15 8 25 12 15 18 12 63 -36 51 -52 98 -90 107 -85 3 2 21 -13 40 -31
20 -19 36 -31 36 -27 0 5 7 3 15 -4 26 -22 16 -1 -18 37 -19 21 -58 69 -87
107 -93 122 -198 239 -216 244 -19 5 -25 30 -13 56 l11 24 51 -38 c27 -21 61
-40 74 -43 36 -7 63 23 62 69 -1 41 6 77 16 94 3 5 -2 24 -12 42 -46 86 -45
93 7 39 27 -28 52 -51 55 -51 4 0 24 -15 59 -45 12 -11 24 -15 71 -23 53 -9
85 -5 105 13 10 9 23 14 29 11 9 -6 9 1 -5 83 -3 19 -7 53 -10 75 -2 23 -6 52
-9 65 -2 13 -7 49 -10 80 l-6 56 16 -35 c9 -19 20 -51 24 -70 5 -21 7 39 5
144 -2 106 1 187 7 198 14 26 46 22 65 -7 15 -23 37 -36 58 -34 5 0 12 -4 15
-10 4 -6 20 -7 44 -1 43 9 51 2 110 -115 19 -38 42 -79 51 -90 15 -19 15 -19
16 8 0 37 -1 33 14 69 7 18 12 56 11 83 -3 56 -25 164 -35 170 -4 3 -4 22 -1
42 10 57 4 69 -40 82 -28 9 -63 35 -113 84 -40 40 -68 69 -63 65 5 -3 16 -4
23 -1 8 3 14 -1 14 -10 0 -17 30 -38 119 -84 68 -35 115 -42 125 -18 3 8 15
15 27 15 19 0 20 4 14 55 -3 30 -2 55 2 55 10 0 43 -57 43 -75 0 -7 7 -18 15
-25 13 -11 15 -8 15 16 0 16 -5 45 -11 64 -28 95 -37 136 -29 144 5 5 6 16 3
25 -4 13 -3 13 5 2 7 -10 20 -12 47 -7 32 6 36 10 34 34 -3 39 12 141 27 185
7 21 30 58 50 83 40 49 39 33 15 214 -6 41 -12 111 -15 155 -3 44 -10 96 -16
115 -6 19 -13 48 -15 63 -3 15 -11 36 -17 46 -9 14 -7 23 5 42 20 28 22 78 4
85 -9 3 -12 26 -10 81 2 70 -22 208 -47 268 -5 11 -11 32 -14 48 -5 22 -12 27
-37 27 -40 0 -87 22 -127 59 -18 17 -42 31 -53 31 -12 0 -19 7 -19 18 0 25
-27 127 -47 182 l-17 45 -7 -33 c-4 -18 -2 -50 3 -70 14 -53 18 -87 21 -176 3
-66 0 -82 -16 -103 -24 -30 -35 -18 -35 42 0 47 -40 167 -78 234 -15 25 -33
57 -40 71 -8 14 -41 54 -73 89 -59 64 -59 64 -90 51 -20 -8 -55 -11 -96 -8
-67 6 -65 7 -49 -39 4 -10 8 -31 9 -46 2 -16 13 -39 26 -53 12 -13 19 -24 14
-24 -4 0 -2 -8 6 -17 20 -26 40 -63 44 -82 2 -13 -4 -16 -31 -16 -19 1 -34 1
-34 0 0 -1 11 -35 25 -75 30 -88 33 -177 8 -218 -31 -49 -56 -72 -88 -78 l-32
-6 40 -70 c33 -56 41 -80 41 -119 0 -37 3 -48 14 -46 10 1 24 -24 43 -80 27
-80 27 -105 1 -63 -7 11 -18 20 -25 20 -7 0 -20 9 -30 20 -10 12 -22 18 -27
15 -6 -4 -26 3 -45 15 -32 20 -36 20 -65 5 -16 -8 -30 -12 -31 -8 0 5 -4 -1
-9 -13 -5 -12 -1 -55 11 -112 16 -76 18 -104 9 -155 -5 -34 -9 -71 -9 -82 2
-33 17 23 19 70 1 22 4 33 7 25 3 -8 21 -58 40 -110 19 -52 37 -106 40 -119 2
-14 6 -28 9 -33 17 -28 52 -174 48 -198 -9 -42 -52 -25 -68 28 -10 30 -56 110
-56 97 0 -5 -5 -2 -11 8 -6 11 -26 25 -45 33 -19 8 -34 19 -34 25 0 11 -29 5
-66 -13 -14 -7 -20 -16 -17 -29 4 -13 0 -19 -11 -19 -9 0 -16 4 -16 9 0 16
-30 21 -50 8 -11 -6 -20 -18 -20 -25 0 -10 -8 -12 -28 -8 -84 19 -132 23 -132
11 0 -7 -6 -15 -14 -18 -17 -7 -86 13 -86 24 0 5 -12 15 -27 23 -16 8 -48 33
-73 56 -85 79 -138 106 -70 35 35 -36 51 -81 39 -111 -20 -54 -73 -25 -118 65
-63 124 -127 219 -202 302 -47 51 -79 95 -79 107 0 27 -8 28 -27 5 -17 -22
-53 -98 -53 -112 0 -6 -4 -11 -9 -11 -5 0 -11 -12 -14 -27 -3 -16 -18 -43 -34
-61 -23 -27 -40 -35 -91 -45 -34 -6 -62 -15 -62 -18 0 -9 109 -161 125 -174 7
-5 24 -29 38 -51 14 -23 38 -55 53 -70 36 -38 85 -115 79 -124 -3 -4 2 -13 10
-20 8 -7 15 -17 15 -22 0 -6 13 -38 29 -72 32 -70 52 -126 45 -126 -13 0 -78
76 -76 88 2 6 -2 12 -7 12 -11 0 -111 145 -111 160 0 5 -4 10 -9 12 -10 3 -64
99 -128 226 -50 100 -111 167 -160 175 -20 4 -38 5 -40 3 -2 -1 13 -37 32 -79
54 -117 65 -174 66 -334 l1 -142 34 -23 c19 -13 34 -29 34 -35 0 -7 5 -13 11
-13 6 0 26 -12 44 -27 17 -16 42 -35 55 -43 12 -8 37 -26 53 -40 17 -14 31
-24 31 -22 2 9 63 -22 94 -48 20 -17 43 -30 51 -30 8 0 11 -3 8 -7 -4 -3 1
-15 10 -26 10 -11 13 -17 6 -14 -6 4 -14 3 -17 -2 -13 -20 -119 24 -167 70
-113 106 -225 193 -239 184 -4 -3 -13 2 -20 10 -18 22 -27 19 -61 -20 -41 -46
-84 -57 -208 -53 l-103 3 6 -40 c14 -90 19 -242 7 -249 -6 -4 -11 -18 -11 -31
0 -50 -53 -34 -64 20 -23 115 -29 152 -38 230 -5 50 -14 94 -19 100 -5 5 -9
25 -9 45 0 19 -7 67 -16 105 -9 39 -20 93 -25 120 -5 28 -13 59 -18 70 -5 11
-12 41 -16 68 -12 91 -23 36 -23 -121 0 -157 -12 -225 -50 -298 -5 -10 -14
-30 -20 -44 -5 -14 -14 -37 -21 -52 -11 -29 -31 -38 -32 -15 -1 33 -12 103
-16 107 -3 3 -8 -2 -11 -10 -3 -8 -24 -34 -47 -57 l-42 -43 -29 30 c-35 35
-47 38 -42 9 4 -29 48 -61 95 -68 l38 -6 0 -135 c1 -74 5 -146 10 -160 9 -25
8 -25 -11 -6 -10 11 -20 23 -20 28 -1 4 -2 13 -3 19 0 5 -5 7 -11 4 -5 -3 -10
1 -10 9 0 19 -16 21 -26 5 -5 -8 -10 -6 -16 5 -12 22 -28 20 -28 -2 0 -10 -7
-19 -15 -19 -9 0 -15 9 -15 22 0 13 -7 28 -15 35 -8 7 -15 21 -15 31 0 10 -5
21 -12 25 -8 5 -9 2 -5 -10 13 -32 49 -331 48 -388 -1 -31 3 -112 8 -180 6
-68 13 -161 15 -208 3 -47 12 -121 21 -165 15 -76 15 -80 -4 -98 -11 -11 -34
-20 -55 -21 -20 0 -36 -4 -36 -7 0 -9 -74 -4 -89 6 -7 4 -25 8 -40 9 -32 2
-97 51 -139 104 -36 45 -75 120 -68 131 5 7 -13 98 -35 176 -19 69 -42 115
-56 115 -16 0 -16 -10 2 -85 8 -33 14 -80 15 -104 0 -40 13 -158 39 -366 6
-44 17 -116 26 -160 14 -73 22 -329 12 -395 -4 -31 -29 -36 -89 -19 -80 23
-86 22 -93 -21 -9 -51 -67 -124 -119 -150 -26 -12 -62 -20 -93 -20 -57 0 -54
4 -72 -90 -10 -50 -16 -114 -25 -265 -2 -27 -5 -54 -7 -60 -2 -5 0 -73 5 -150
6 -111 12 -155 32 -210 14 -38 29 -77 34 -85 13 -21 60 -120 60 -126 0 -3 -9
-14 -19 -25 -10 -11 -25 -41 -32 -67 -7 -26 -15 -49 -19 -52 -4 -3 -22 -38
-40 -77 -30 -63 -40 -76 -77 -93 -24 -11 -52 -20 -63 -20 -19 0 -20 -6 -19
-132 0 -116 4 -162 23 -265 2 -12 20 -52 40 -90 33 -63 35 -73 30 -138 -9
-135 -11 -150 -28 -182 -17 -34 -19 -69 -16 -285 1 -152 -11 -186 -52 -139
-15 18 -68 141 -68 159 0 5 -7 23 -15 38 -8 16 -15 38 -15 50 0 11 -10 31 -21
43 -20 21 -22 33 -20 145 3 241 2 482 -3 526 -3 25 -16 75 -30 110 -19 51 -28
64 -43 62 -10 -2 -46 -3 -80 -3 l-62 -1 -8 -36 c-8 -37 -8 -478 0 -582 2 -30
-1 -61 -7 -68 -5 -8 -9 -28 -8 -45 2 -29 2 -30 -16 -14 -29 26 -41 21 -37 -15
3 -18 9 -114 15 -213 6 -99 15 -211 20 -250 11 -80 29 -258 34 -325 2 -25 6
-61 10 -80 3 -19 8 -48 11 -65 8 -39 25 -151 31 -194 2 -18 8 -41 13 -50 13
-25 38 -158 46 -247 2 -23 -1 -31 -12 -30 -8 1 -18 7 -21 12 -4 5 -14 10 -22
12 -8 2 -21 9 -28 15 -8 6 -19 12 -26 13 -40 6 -204 199 -224 264 -22 71 -41
323 -46 618 -4 236 -3 303 7 299 9 -3 12 26 12 117 0 66 5 162 12 211 6 50 15
133 19 185 l7 95 19 -57 c21 -61 43 -81 28 -25 -24 84 -34 278 -21 372 19 131
32 186 42 179 5 -3 14 9 20 26 6 17 14 29 16 26 14 -14 34 30 43 95 6 39 23
124 39 188 16 64 34 142 41 174 6 31 16 57 21 57 5 0 9 57 9 130 0 138 18 376
29 398 13 23 50 -18 95 -107 23 -46 46 -83 51 -83 6 -1 21 20 35 46 13 25 28
46 33 46 18 0 28 -61 27 -174 0 -145 4 -181 20 -201 7 -8 9 -15 4 -15 -4 0 2
-10 13 -22 23 -27 53 -89 53 -111 0 -26 12 -47 26 -47 8 0 14 -4 14 -9 0 -16
33 -22 47 -9 10 11 6 25 -23 81 -71 136 -109 298 -121 508 l-6 116 -67 -5
c-40 -3 -70 0 -73 6 -7 10 39 62 54 62 5 0 9 5 9 11 0 6 6 17 12 24 7 8 18 21
24 28 16 19 64 154 58 160 -3 3 0 15 6 27 10 18 14 19 28 8 14 -11 15 -11 9 5
-30 79 -54 431 -38 554 6 43 13 103 16 133 4 30 20 120 36 199 33 164 31 211
-17 329 -15 37 -32 87 -39 112 l-12 45 -7 -63 c-4 -35 -12 -76 -17 -90 -23
-61 -27 -125 -16 -337 2 -49 0 -108 -5 -130 -5 -22 -11 -51 -13 -65 -6 -45
-27 -124 -41 -157 -8 -17 -14 -39 -14 -50 -1 -10 -9 -36 -20 -58 -11 -22 -19
-46 -20 -54 0 -7 -11 -50 -25 -95 -13 -44 -38 -129 -54 -188 -17 -59 -34 -116
-39 -125 -6 -10 -15 -45 -22 -78 -7 -33 -15 -64 -19 -70 -5 -5 -18 -55 -31
-110 -12 -55 -30 -127 -40 -161 -10 -33 -21 -81 -25 -107 -4 -26 -11 -47 -15
-47 -4 0 -10 -20 -13 -45 -4 -24 -11 -53 -16 -62 -5 -10 -19 -63 -31 -118 -11
-55 -31 -140 -44 -190 -13 -49 -29 -117 -36 -150 -7 -33 -21 -96 -31 -140 -11
-44 -22 -106 -26 -137 -3 -32 -9 -58 -13 -58 -5 0 -8 -10 -8 -22 1 -13 -2 -52
-5 -88 -17 -189 -18 -268 -8 -400 7 -80 14 -179 18 -220 6 -79 0 -84 -32 -25
-16 28 -16 20 -10 -165 3 -107 10 -259 15 -337 5 -78 8 -262 5 -410 -4 -273
-4 -276 38 -503 2 -14 10 -59 16 -100 7 -41 17 -91 22 -111 5 -20 9 -52 9 -70
1 -28 3 -31 13 -19 13 17 67 23 67 8 0 -5 4 -7 8 -4 10 6 29 -79 31 -138 1
-22 4 -43 7 -47 10 -18 33 -341 39 -569 4 -113 8 -230 11 -260 11 -141 22
-297 21 -315 -1 -53 16 -151 29 -161 7 -6 11 -13 9 -16 -3 -3 6 -13 19 -21 14
-9 38 -36 54 -59 26 -38 30 -54 36 -148 4 -58 9 -127 11 -155 2 -27 7 -120 10
-205 4 -85 11 -207 16 -270 5 -63 12 -155 15 -205 3 -49 12 -173 20 -275 8
-102 17 -252 19 -334 3 -82 7 -151 9 -154 12 -11 38 33 58 93 11 36 22 65 23
63 2 -2 -1 -40 -5 -86 -13 -127 -63 -193 -197 -261 -54 -27 -147 -29 -176 -3
-19 17 -19 16 -13 -33 7 -61 21 -240 41 -530 45 -642 106 -1124 206 -1630 74
-377 164 -774 167 -741 2 16 -1 39 -7 50 -6 12 -29 116 -51 231 -22 116 -47
242 -56 280 -8 39 -22 113 -30 165 -8 52 -26 151 -39 220 -14 69 -27 150 -29
180 -2 30 -9 89 -15 130 -6 41 -18 188 -26 325 -9 138 -20 284 -24 325 -5 41
-4 79 0 85 6 5 9 3 9 -5 0 -10 3 -11 8 -4 4 6 17 16 29 23 25 13 29 6 36 -79
10 -115 29 -257 37 -275 5 -11 11 -49 14 -85 2 -36 10 -101 16 -145 6 -44 15
-109 19 -145 5 -36 21 -130 35 -210 14 -80 29 -162 32 -183 4 -20 11 -40 15
-43 5 -3 9 -25 9 -49 0 -24 4 -46 9 -49 4 -3 11 -25 15 -48 8 -55 55 -257 66
-283 4 -11 16 -51 25 -90 9 -38 26 -92 37 -120 16 -39 19 -62 15 -112 -4 -35
-2 -63 3 -63 13 0 68 57 74 78 3 9 4 2 2 -15 -1 -18 1 -33 6 -33 4 0 8 11 8
24 0 49 12 85 26 79 8 -3 14 -14 14 -24 0 -12 -5 -16 -15 -13 -8 4 -15 1 -15
-5 0 -6 5 -11 10 -11 15 0 13 -22 -30 -256 -23 -121 -54 -318 -70 -439 -16
-121 -34 -249 -39 -285 -6 -36 -15 -144 -21 -240 -6 -96 -15 -188 -20 -205 -8
-28 -11 -91 -25 -430 -3 -66 -8 -187 -11 -270 -3 -82 -7 -251 -9 -375 -6 -402
-17 -632 -41 -815 -23 -179 -27 -257 -28 -520 -1 -262 6 -318 47 -400 28 -56
67 -104 99 -121 52 -28 209 -13 250 23 16 15 162 297 623 1206 l172 338 7
-893 c15 -1977 42 -2861 131 -4303 85 -1368 172 -2402 286 -3427 13 -109 26
-198 30 -198 5 0 6 26 4 58 -12 155 -15 321 -7 357 8 34 10 36 11 12 1 -15 13
-74 27 -130 30 -115 38 -151 54 -222 6 -27 14 -57 17 -65 3 -8 8 -24 10 -35 4
-23 26 -106 49 -185 18 -61 28 -99 46 -180 7 -30 16 -59 19 -65 6 -9 11 -27
25 -90 1 -5 7 -30 14 -55 6 -25 12 -52 14 -60 4 -27 18 -74 32 -115 15 -43 61
-253 71 -320 3 -22 9 -44 13 -50 4 -5 11 -39 14 -74 4 -36 8 -67 10 -70 4 -5
11 -52 22 -136 2 -16 6 -50 10 -75 3 -25 7 -56 8 -70 4 -39 26 -180 36 -235 6
-27 12 -70 14 -95 3 -25 10 -79 16 -120 17 -110 21 -139 26 -200 2 -30 9 -77
14 -105 6 -27 12 -72 15 -99 3 -27 7 -56 9 -65 5 -16 12 -68 22 -161 2 -25 7
-52 9 -60 3 -8 7 -38 10 -65 3 -28 8 -63 12 -80 10 -48 12 -76 12 -144 0 -73
-31 -147 -74 -175 -20 -13 -23 -20 -16 -35 17 -30 63 -55 110 -57 72 -4 75
-11 82 -207 5 -142 9 -183 28 -236 24 -68 57 -120 79 -120 6 -1 12 -5 12 -11
0 -5 6 -10 13 -10 7 0 24 -25 37 -56 12 -31 38 -82 57 -113 18 -30 32 -62 31
-71 -3 -15 6 -35 63 -155 74 -154 267 -374 444 -507 50 -38 93 -68 96 -68 6 0
-12 79 -33 140 -7 19 -13 40 -15 45 -1 6 -9 30 -16 55 -12 36 -53 205 -63 255
-1 6 -7 28 -12 50 -6 22 -14 56 -17 75 -3 19 -13 60 -21 90 -20 72 -66 261
-69 280 -1 8 -4 24 -8 35 -3 11 -9 31 -11 45 -10 47 -39 154 -49 180 -3 8 -5
22 -5 30 0 29 -72 220 -83 220 -3 0 -14 28 -23 63 -10 34 -22 70 -27 79 -5 10
-9 25 -9 33 0 8 -4 15 -9 15 -5 0 -11 12 -15 28 -3 15 -24 47 -46 72 -22 24
-40 50 -40 56 0 6 -7 17 -15 24 -8 7 -17 28 -21 49 -3 20 -14 83 -25 141 l-19
104 61 133 c33 74 62 142 64 152 2 10 13 37 24 59 l21 41 -65 302 c-66 308
-171 872 -201 1079 -9 63 -17 120 -18 125 -2 6 -6 33 -11 60 -4 28 -11 55 -15
60 -4 6 -13 54 -20 108 -8 53 -17 97 -22 97 -5 0 -8 15 -8 33 3 99 -12 328
-35 517 -45 375 -105 850 -125 985 -110 753 -232 2010 -300 3090 -6 94 -22
238 -36 320 -28 173 -71 505 -79 615 -20 277 -28 373 -41 510 -20 209 -24 274
-28 490 -5 218 7 309 47 346 14 12 28 20 31 17 3 -4 14 1 24 11 18 16 19 13
25 -81 4 -54 8 -170 8 -258 1 -135 3 -151 11 -100 25 172 25 358 -1 750 -6 94
-13 206 -16 250 -37 676 -46 807 -55 850 -10 44 -27 394 -65 1345 -14 338 -30
716 -35 840 -40 915 -39 889 -79 1620 -10 192 -10 165 -10 395 0 99 2 194 4
210 1 17 6 62 11 100 4 39 10 72 13 75 21 17 34 123 37 315 3 189 2 207 -11
180 -8 -16 -14 -36 -15 -44 0 -8 -3 -12 -6 -8 -6 6 9 62 26 102 5 11 32 92 60
180 29 88 59 180 67 205 8 25 17 51 19 59 3 8 6 12 9 9 2 -2 -9 -46 -26 -98
-28 -86 -32 -149 -10 -136 4 3 14 -7 22 -22 7 -15 19 -34 25 -42 18 -22 42
-125 59 -247 8 -60 20 -139 26 -178 6 -38 12 -88 14 -110 1 -22 8 -71 14 -110
6 -38 15 -117 21 -175 5 -58 15 -143 21 -190 6 -47 13 -101 15 -120 2 -19 10
-82 18 -140 8 -58 17 -145 21 -195 3 -49 10 -130 16 -180 6 -49 12 -106 14
-125 9 -92 17 -153 21 -173 2 -12 6 -58 9 -102 3 -44 7 -93 10 -110 3 -16 7
-75 10 -130 4 -55 8 -111 10 -125 3 -14 9 -58 15 -98 5 -40 12 -78 15 -83 4
-5 6 -28 7 -52 0 -23 9 -76 20 -117 11 -41 23 -88 26 -105 2 -16 8 -32 12 -35
4 -3 15 -30 24 -60 20 -65 48 -133 57 -140 7 -6 23 -61 21 -72 -1 -5 2 -8 7
-8 4 0 16 -21 26 -47 32 -89 48 -122 62 -127 7 -3 13 -4 13 -2 0 2 -9 57 -20
121 -11 64 -20 140 -20 167 l0 50 39 -35 c21 -19 47 -38 58 -41 16 -5 21 -26
37 -139 21 -159 23 -172 25 -172 3 0 8 -20 22 -81 9 -43 14 -51 30 -47 23 6
99 74 99 89 0 6 8 19 18 30 31 32 176 346 187 403 1 9 19 41 39 71 20 30 36
59 36 65 0 12 -42 -37 -72 -85 -27 -43 -51 -65 -103 -96 -69 -40 -244 -70
-260 -45 -8 14 25 92 50 118 33 34 97 252 126 428 5 33 16 98 24 145 7 47 16
105 19 130 4 25 13 86 20 135 12 73 12 113 3 213 l-11 122 -64 0 -64 0 6 28
c4 15 13 79 21 142 14 108 30 182 45 205 22 33 34 130 31 238 -1 26 -25 39
-33 16 -2 -7 -12 -6 -28 3 l-25 13 11 90 c7 50 14 102 18 116 3 15 10 85 15
155 12 163 9 167 -81 135 -35 -13 -74 -25 -88 -28 -14 -3 -28 -10 -31 -15 -3
-5 -32 -12 -64 -15 -57 -6 -57 -6 -50 18 4 13 22 54 41 90 18 36 50 108 72
160 52 124 64 149 71 149 3 0 20 -13 37 -28 69 -60 99 -82 112 -82 21 0 55 21
72 44 14 20 19 29 47 81 30 56 35 79 36 161 l2 88 34 7 c26 6 39 3 55 -12 11
-11 34 -23 51 -27 16 -5 35 -18 41 -31 12 -24 71 -86 158 -168 37 -35 65 -53
81 -53 20 0 25 -5 25 -27 1 -41 35 -195 42 -188 3 3 8 -16 12 -42 8 -58 37
-115 52 -105 16 10 62 128 70 180 4 23 11 45 15 48 5 3 9 14 9 25 0 11 4 18 9
14 5 -3 12 -1 16 5 4 6 16 3 33 -10 67 -51 85 -66 93 -75 4 -5 24 -28 43 -51
20 -23 33 -44 29 -47 -3 -4 2 -16 12 -27 17 -19 19 -42 19 -255 1 -129 4 -235
9 -235 4 0 7 21 7 48 0 26 4 63 10 82 9 35 20 117 25 195 1 22 5 83 9 135 16
243 24 299 55 353 10 18 29 79 42 135 l24 102 49 17 c27 10 71 37 97 61 l47
42 7 -107 c11 -156 -2 -678 -20 -808 -8 -60 -22 -145 -31 -188 -12 -56 -14
-83 -7 -100 9 -19 12 -15 23 38 7 33 13 65 14 72 3 17 16 29 16 15 0 -7 7 -12
15 -12 8 0 15 -4 15 -10 0 -5 9 -10 20 -10 20 0 20 4 15 183 -3 100 -8 202
-10 227 -19 208 -26 517 -13 552 6 16 14 14 69 -17 33 -19 65 -35 70 -35 10 0
60 -33 94 -62 11 -9 26 -18 34 -20 14 -3 49 -58 91 -144 11 -22 33 -54 48 -71
23 -27 31 -30 51 -22 l24 10 -6 297 c-5 218 -3 353 8 507 8 116 14 262 14 325
l0 115 -94 79 c-52 44 -115 93 -140 110 -38 27 -44 36 -45 66 0 33 -5 38 -89
91 l-88 57 -17 128 c-27 203 -37 352 -39 584 -2 214 9 430 21 430 4 0 15 -12
25 -28 11 -15 34 -38 52 -52 29 -22 33 -32 39 -90 11 -102 104 -359 151 -415
16 -19 16 -18 11 30 -3 28 -12 104 -21 170 -9 68 -13 141 -10 167 l7 48 66 -6
c89 -8 184 15 285 69 105 56 184 120 227 185 l34 52 116 0 c98 0 124 4 173 24
l58 24 9 -21 c21 -52 98 -133 156 -164 110 -58 296 -69 416 -24 l56 22 59 -29
c100 -50 156 -64 241 -60 82 4 157 32 285 106 32 19 60 32 62 30 2 -1 23 -41
47 -88 74 -144 112 -195 176 -239 113 -77 134 -122 108 -234 -25 -105 -21
-164 14 -239 38 -81 47 -132 59 -340 11 -185 18 -211 79 -279 53 -59 91 -76
143 -62 46 12 49 8 49 -85 -1 -105 -52 -210 -160 -326 -91 -99 -188 -166 -365
-252 -151 -74 -166 -83 -132 -84 98 0 355 69 472 127 194 98 383 263 451 395
28 55 64 180 64 224 0 27 9 36 70 78 184 126 366 389 426 617 22 84 14 228
-17 318 -25 73 -105 185 -135 189 -22 3 -44 50 -44 94 0 14 -8 36 -18 49 -10
13 -22 32 -25 42 -4 11 -16 21 -27 24 -11 3 -20 10 -20 16 0 14 -182 187 -191
182 -4 -3 -31 22 -61 56 -29 33 -66 76 -83 94 -16 19 -41 49 -55 67 -32 41
-68 77 -107 106 -40 29 -49 60 -20 67 23 4 417 18 542 18 60 0 97 -9 254 -61
180 -61 186 -64 341 -167 129 -86 164 -115 195 -159 20 -30 73 -86 116 -126
60 -54 88 -89 113 -139 64 -125 158 -204 284 -236 73 -19 129 -13 167 17 l25
20 21 -46 c39 -90 45 -184 22 -381 -14 -124 -91 -257 -255 -444 -26 -30 -48
-59 -48 -63 0 -23 191 107 286 194 24 23 45 39 47 37 1 -2 12 -22 23 -44 16
-29 32 -43 60 -53 80 -28 227 11 311 82 l32 27 17 -33 c25 -48 30 -168 9 -248
-52 -204 -201 -401 -439 -580 -100 -76 -26 -60 168 36 163 80 299 201 406 359
160 237 191 458 94 662 -19 41 -34 87 -34 108 0 39 -15 44 -34 9 -6 -10 -20
-26 -30 -34 -103 -80 -168 -160 -180 -221 -6 -29 -79 -106 -84 -89 -2 6 -7 8
-11 6 -11 -7 -2 55 12 84 7 14 18 29 24 33 7 4 13 15 13 22 0 8 4 15 9 15 5 0
13 10 17 23 3 12 13 29 20 37 7 8 27 31 43 50 16 20 42 42 58 50 82 43 93 60
93 147 l0 76 -79 141 c-43 78 -111 205 -150 283 -99 196 -144 260 -332 478
-90 105 -193 226 -229 270 -102 126 -112 137 -160 183 -70 68 -257 164 -346
178 -22 3 -49 11 -61 17 -12 7 -65 36 -118 65 -52 29 -100 50 -106 46 -6 -4
-14 -2 -18 4 -8 13 -120 18 -218 10 -39 -4 -74 -4 -77 -1 -9 9 14 43 29 43 23
0 20 60 -2 61 -28 1 -134 -2 -179 -6 -46 -4 -187 -49 -308 -99 -45 -19 -106
-44 -136 -56 -30 -12 -60 -24 -66 -27 -8 -3 -12 8 -12 31 0 20 3 36 7 36 18 0
80 71 75 85 -4 8 -10 12 -15 9 -5 -3 -9 0 -9 6 0 16 -59 8 -80 -12 -27 -26
-67 -20 -75 11 -4 14 -12 40 -20 57 l-14 33 -71 -32 -71 -32 3 -40 3 -40 -35
3 c-43 5 -114 43 -118 65 -3 14 5 17 45 17 44 1 46 2 29 15 -10 8 -23 12 -27
9 -8 -5 -13 9 -10 28 6 45 15 77 28 97 12 19 14 42 8 125 -12 178 -28 207 -95
175 -46 -23 -92 -74 -121 -136 -18 -38 -22 -66 -22 -135 0 -48 -3 -85 -7 -83
-4 2 -20 -5 -38 -15 -33 -20 -102 -42 -142 -45 -87 -5 -81 -2 -74 -40 3 -19 3
-43 -1 -52 -4 -10 -8 -42 -7 -72 0 -54 1 -56 53 -100 169 -140 432 -442 413
-472 -7 -12 -64 -11 -65 1 -1 6 -3 15 -4 20 -1 6 -3 14 -4 20 0 5 -16 27 -34
47 -18 21 -38 50 -45 65 -28 67 -259 276 -367 332 -64 33 -75 36 -125 30 -52
-5 -94 -19 -150 -48 -35 -17 -50 -10 -50 25 0 36 81 129 112 129 16 0 19 5 15
23 -3 12 -9 50 -13 85 l-7 62 -57 0 c-91 0 -95 4 -51 60 20 26 43 61 50 79 8
17 18 31 23 31 5 0 7 4 3 9 -3 6 4 51 15 102 26 122 26 121 -7 108 -16 -5 -33
-16 -38 -24 -6 -7 -42 -23 -81 -34 -66 -21 -71 -24 -89 -66 -11 -25 -27 -45
-36 -45 -10 0 -18 -15 -25 -42 -11 -48 -26 -58 -41 -26 -11 25 -8 96 7 194 7
41 7 71 0 91 -11 30 -12 30 -48 18 -20 -7 -57 -16 -82 -19 l-45 -7 30 17 c44
24 64 44 64 62 0 10 2 44 4 77 2 36 0 63 -6 67 -12 7 -43 -24 -52 -53 -4 -11
-11 -17 -16 -14 -5 4 -9 1 -9 -4 0 -16 -89 -99 -114 -107 -11 -3 -30 -14 -41
-23 -37 -31 -71 -26 -110 14 -19 21 -37 47 -41 59 -4 11 -10 23 -13 26 -8 6
-47 150 -56 203 -3 21 -9 45 -12 53 -5 13 3 14 47 8 47 -6 53 -5 47 9 -3 9 -2
19 3 22 9 5 -7 54 -21 65 -23 19 -32 66 -35 175 -3 138 0 155 27 155 31 0 69
50 64 85 -2 17 -4 34 -4 38 -1 5 -9 6 -20 2 -22 -7 -53 4 -45 16 7 12 -2 11
-49 -2 -41 -11 -97 -4 -97 12 0 6 -9 19 -20 31 -11 12 -20 27 -20 32 0 6 -11
19 -24 28 l-24 17 -6 -44 c-4 -24 -9 -86 -12 -137 -6 -128 -22 -198 -45 -198
-29 0 -41 60 -46 230 -5 153 -11 176 -40 165 -7 -2 -13 3 -13 12 0 12 -3 13
-14 4 -10 -9 -15 -8 -19 3 -4 9 -2 18 3 21 6 4 10 12 10 20 0 8 5 26 12 42 6
15 12 33 13 38 0 6 5 18 9 27 6 13 -1 29 -23 56 -35 45 -59 67 -66 60 -5 -5
-55 -135 -58 -153 -2 -5 -5 -14 -9 -20 -3 -5 -13 -35 -22 -65 -16 -53 -16 -55
4 -69 40 -27 14 -75 -48 -87 -18 -4 -32 -11 -32 -16 0 -6 -10 -23 -22 -38 -13
-16 -30 -38 -39 -49 l-16 -21 -26 21 c-15 11 -27 18 -27 14 0 -3 -13 3 -29 14
-16 12 -33 21 -39 21 -5 0 -30 12 -56 26 -44 25 -46 27 -46 71 0 30 -8 58 -22
81 -22 36 -22 36 -28 12 -6 -24 -6 -24 -49 19 -23 23 -40 45 -38 48 3 2 1 20
-5 40 -17 62 -19 76 -18 158 1 85 6 145 12 149 1 1 41 9 87 19 52 10 88 22 93
32 5 8 17 15 27 15 10 0 30 9 45 21 14 11 31 17 37 13 7 -4 9 -3 6 3 -6 10 64
102 89 116 8 5 12 11 10 15 -3 4 13 27 34 51 22 24 37 48 33 54 -3 5 -2 12 3
16 16 11 45 76 49 109 2 17 8 39 13 49 5 10 12 63 16 118 4 55 11 129 17 165
13 81 -7 159 -42 160 -9 0 -50 -98 -55 -132 -2 -18 -6 -40 -8 -48 -2 -8 -7
-30 -11 -47 -4 -18 -11 -33 -15 -33 -4 0 -10 -18 -13 -40 -7 -53 -56 -156 -96
-200 -17 -19 -39 -44 -48 -55 -17 -19 -17 -19 -23 5 -7 26 -3 216 5 238 3 9 0
10 -14 3 -10 -6 -45 -14 -77 -20 -64 -10 -79 -2 -67 34 5 18 4 19 -13 5 -33
-26 -63 -40 -87 -40 -24 0 -91 32 -120 58 -16 14 -16 16 0 29 36 26 94 63 102
63 4 0 27 18 51 40 23 22 51 42 61 45 10 3 21 15 24 25 3 11 16 27 28 37 12
10 24 27 25 38 2 11 17 38 33 59 16 22 29 46 29 53 0 7 5 13 10 13 6 0 10 6
10 13 0 7 9 29 20 50 27 50 47 111 55 170 4 26 11 47 16 47 5 0 9 11 9 25 0
30 -2 30 -72 6 -76 -26 -172 -35 -233 -21 -67 15 -76 24 -63 63 34 106 48 411
18 392 -18 -11 -32 28 -32 92 -1 37 -5 70 -9 73 -12 8 -17 53 -9 76 8 20 17
22 132 26 68 3 131 8 140 12 13 6 21 -2 37 -31 19 -38 71 -92 120 -123 l23
-16 -53 -104 c-29 -58 -54 -111 -55 -118 -1 -7 -19 -42 -39 -78 -20 -37 -34
-69 -31 -71 3 -3 -11 -30 -30 -60 -19 -30 -32 -58 -29 -63 6 -9 55 5 65 18 3
4 24 20 47 35 23 16 44 35 47 43 3 8 12 14 20 14 9 0 23 15 32 33 9 17 34 58
55 89 38 56 39 60 39 146 l0 89 -35 18 c-30 17 -34 24 -33 55 0 19 5 43 10 53
12 24 22 98 22 172 1 33 4 62 7 65 6 5 39 121 43 152 1 10 5 21 9 24 11 11 8
36 -3 29 -14 -8 -13 8 1 22 19 19 -12 56 -78 91 -38 20 -67 29 -81 25 -15 -3
-24 0 -28 11 -3 9 -12 16 -20 16 -8 0 -14 5 -14 11 0 5 -5 7 -12 3 -7 -5 -9
-2 -5 9 3 9 2 17 -3 19 -6 2 -5 19 2 42 9 28 20 42 40 50 19 7 27 15 22 26
-13 34 -16 191 -5 280 17 135 39 213 60 204 32 -14 107 -22 146 -17 22 3 82
28 134 55 89 46 95 47 112 32 18 -16 19 -16 19 9 0 17 7 28 20 32 11 3 21 13
21 21 2 16 3 22 11 44 5 13 30 131 42 200 2 14 7 36 10 50 5 23 7 49 6 90 -1
8 2 54 6 101 6 82 5 88 -15 98 -11 7 -21 9 -21 5 0 -4 -8 1 -19 10 -15 14 -40
20 -103 25 -3 1 -3 13 1 29 5 17 15 28 28 30 30 5 43 24 35 53 -7 23 -40 36
-52 21 -3 -4 -22 -20 -43 -36 -22 -16 -36 -34 -33 -41 4 -13 -43 -65 -104
-114 -14 -11 -32 -26 -40 -33 -31 -27 -79 -56 -83 -51 -3 2 1 23 8 46 25 78
42 157 34 157 -5 0 -9 12 -9 28 -1 15 -7 40 -14 57 -10 25 -9 42 11 120 26 99
68 210 92 238 13 15 13 26 1 85 -17 83 -16 129 4 167 l16 30 12 -33 c7 -17 20
-34 29 -37 9 -3 20 -16 23 -28 10 -40 63 -85 114 -95 68 -14 153 -5 172 17 3
4 22 15 42 26 27 14 41 30 49 55 18 57 69 180 106 254 30 59 37 67 45 52 9
-15 20 -155 22 -273 1 -20 4 -29 10 -23 6 6 18 10 28 10 10 0 21 7 24 15 4 8
10 12 15 9 5 -3 5 -12 0 -22 -5 -9 -11 -31 -14 -48 -3 -17 -12 -45 -21 -62 -9
-17 -16 -42 -16 -55 0 -12 -4 -27 -8 -32 -22 -25 -47 -157 -47 -247 0 -27 -4
-49 -10 -50 -5 0 -14 -2 -20 -2 -44 -6 -49 -73 -9 -105 36 -28 44 -26 44 9 0
27 3 30 33 31 17 0 43 3 57 5 14 2 31 5 38 6 6 1 12 7 12 15 0 7 7 16 15 19 8
4 13 9 10 13 -2 4 6 18 19 32 12 13 21 29 19 36 -2 6 3 17 11 25 8 8 26 39 41
69 15 30 33 66 41 81 8 14 14 38 14 53 0 63 65 305 83 305 6 0 8 -3 5 -6 -4
-3 0 -21 8 -40 8 -19 12 -34 9 -34 -10 0 24 -55 58 -94 26 -29 37 -53 41 -88
6 -44 8 -47 26 -38 11 6 20 18 20 27 0 9 3 13 6 10 4 -4 28 11 54 33 26 22 52
40 58 40 5 0 16 8 23 17 8 9 43 30 79 46 36 16 67 32 70 36 19 24 49 28 100
15 73 -19 130 -18 130 1 0 23 -42 55 -88 67 -23 6 -45 14 -48 19 -3 5 -13 9
-23 9 -10 0 -23 12 -30 26 -10 22 -9 30 4 44 8 9 15 22 15 28 0 27 103 34 208
15 76 -13 85 -13 108 2 27 18 28 18 119 35 33 7 70 16 81 22 12 5 33 11 48 11
14 1 26 5 26 10 0 4 25 5 55 3 71 -5 96 -25 85 -69 -9 -40 -31 -87 -40 -87 -4
0 -22 -21 -40 -46 -40 -57 -103 -87 -212 -104 -68 -11 -77 -15 -81 -36 -5 -26
11 -32 31 -12 9 9 12 9 12 -1 0 -11 3 -11 15 -1 14 11 64 23 90 21 54 -4 60
-8 63 -39 5 -51 26 -59 64 -23 18 17 41 31 50 31 10 0 26 9 36 20 15 17 21 18
30 7 7 -8 26 -11 49 -9 l38 4 16 79 c9 43 12 79 7 79 -4 0 -8 13 -8 29 0 22
-6 32 -22 37 -39 13 -48 13 -48 -2 0 -8 -6 -14 -13 -14 -20 0 -21 84 -1 157
17 63 17 63 41 48 21 -14 23 -14 23 4 0 10 7 21 15 25 8 3 15 12 15 20 0 8 41
56 90 105 65 66 90 98 90 116 0 14 5 25 10 25 6 0 10 -4 10 -8 0 -5 19 -18 43
-31 64 -33 79 -43 112 -77 43 -43 73 -88 81 -118 3 -14 11 -26 16 -26 6 0 7
-7 4 -16 -3 -8 -2 -12 4 -9 6 3 10 0 10 -8 0 -7 21 -32 46 -54 40 -36 50 -41
85 -38 49 5 55 9 64 42 8 34 49 83 62 75 9 -6 30 -65 53 -147 5 -16 12 -52 16
-80 3 -27 8 -59 10 -70 16 -87 15 -84 53 -91 20 -4 41 -10 46 -14 6 -4 24 -12
41 -18 25 -8 35 -7 46 4 8 8 38 21 66 28 l50 14 7 -47 c6 -42 10 -48 43 -60
20 -7 48 -13 62 -13 29 0 110 20 125 31 5 4 29 13 51 19 23 7 47 19 54 27 17
20 29 19 23 -3 -4 -17 45 -72 65 -72 9 0 31 -26 50 -58 19 -33 30 -140 22
-207 -4 -33 -5 -64 -2 -69 3 -5 0 -6 -5 -3 -6 4 -13 -6 -16 -22 -6 -29 -34
-63 -79 -96 l-23 -17 32 4 c30 4 31 3 22 -21 -6 -13 -8 -30 -5 -37 3 -8 1 -16
-4 -19 -6 -4 -10 -21 -10 -38 1 -30 1 -31 15 -13 14 18 15 17 15 -25 0 -25 -4
-49 -10 -55 -5 -5 -15 -37 -21 -69 -13 -77 -29 -124 -51 -154 -10 -13 -18 -30
-18 -37 0 -8 -4 -14 -10 -14 -5 0 -20 -12 -34 -27 -18 -19 -22 -29 -14 -34 9
-6 7 -13 -5 -27 -10 -11 -20 -30 -22 -42 -5 -24 -21 -40 -42 -40 -6 0 -20 -13
-30 -30 -9 -16 -20 -30 -24 -30 -13 0 -30 -57 -35 -119 -6 -68 -22 -136 -31
-127 -3 2 -19 -10 -36 -27 -17 -18 -35 -31 -39 -30 -4 2 -8 -6 -8 -17 0 -11
-6 -20 -14 -20 -8 0 -27 -18 -43 -41 -15 -22 -48 -61 -73 -86 -36 -37 -40 -45
-22 -40 17 4 22 1 22 -14 0 -13 7 -19 21 -19 18 0 20 -4 13 -32 -15 -70 -2
-167 28 -208 12 -17 27 -30 34 -30 6 0 17 -7 24 -15 7 -8 16 -12 21 -9 5 3 9
1 9 -4 0 -5 15 -13 34 -19 31 -10 37 -8 61 17 l27 29 -26 52 c-14 29 -26 63
-26 74 0 39 66 79 76 47 3 -9 11 -30 16 -45 l11 -28 11 23 c7 13 13 42 15 66
1 24 6 55 11 68 6 14 10 45 10 69 0 36 6 50 32 77 18 18 36 32 40 31 4 -2 8 1
8 6 0 5 14 19 30 31 36 26 39 13 5 -24 -14 -15 -25 -30 -25 -35 0 -4 16 -24
35 -45 19 -21 35 -44 35 -50 0 -7 8 -21 18 -32 10 -10 30 -44 45 -74 14 -30
38 -68 52 -83 22 -23 25 -33 19 -60 -4 -18 -8 -72 -10 -122 -2 -118 -12 -213
-24 -235 -5 -9 -7 -20 -4 -22 2 -3 -7 -37 -20 -77 -13 -39 -22 -71 -19 -71 3
0 1 -6 -5 -13 -18 -21 -27 -75 -21 -122 1 -11 -5 -51 -14 -90 -9 -38 -23 -114
-32 -167 -9 -54 -21 -98 -27 -98 -5 0 -7 4 -4 9 3 5 8 44 11 87 3 44 8 93 10
110 6 34 -2 64 -16 64 -5 0 -9 -16 -9 -35 0 -19 -4 -35 -9 -35 -4 0 -11 -28
-15 -62 -4 -35 -13 -87 -21 -115 -8 -29 -22 -79 -31 -110 -8 -32 -21 -76 -29
-98 -7 -22 -16 -56 -20 -75 -4 -19 -9 -44 -12 -54 -4 -15 -1 -18 11 -13 14 6
16 3 10 -16 -4 -12 -11 -23 -15 -25 -5 -2 -9 -19 -9 -37 0 -19 -6 -40 -14 -48
-8 -8 -20 -34 -26 -58 -7 -24 -20 -54 -30 -67 -10 -12 -21 -36 -25 -52 -3 -16
-13 -34 -21 -41 -8 -6 -14 -19 -14 -28 0 -9 -9 -24 -20 -34 -11 -9 -20 -23
-20 -30 0 -8 -16 -35 -35 -61 -36 -46 -69 -131 -59 -148 3 -5 -1 -19 -8 -31
-8 -12 -21 -44 -28 -71 -8 -28 -31 -81 -52 -120 -21 -38 -41 -80 -44 -93 -4
-13 -10 -21 -15 -18 -4 3 -13 -4 -20 -16 -10 -19 -9 -21 5 -16 13 5 16 3 12
-11 -3 -9 -10 -46 -16 -82 -7 -36 -14 -76 -16 -89 -8 -41 -56 -132 -112 -214
-79 -116 -61 -127 26 -16 40 52 93 125 117 162 24 37 57 83 74 103 17 19 31
39 31 45 0 9 55 94 70 109 3 3 11 18 18 33 7 16 36 65 66 110 46 72 67 110 70
127 1 3 15 28 32 55 44 72 94 155 114 190 9 17 36 59 58 95 23 36 49 81 58
100 9 19 20 42 25 50 28 49 110 227 115 249 6 24 34 99 55 146 12 27 52 156
54 175 2 19 24 85 42 127 7 17 13 37 13 44 0 7 4 26 10 43 47 149 61 204 74
283 2 11 12 47 21 80 10 32 19 69 20 83 2 14 11 63 20 110 10 47 19 94 20 105
2 11 8 40 15 65 7 25 14 54 16 65 1 11 7 52 13 90 27 179 2 639 -45 815 -14
54 -39 118 -58 150 -30 48 -45 61 -118 99 l-84 45 -1 140 c0 155 -14 237 -62
363 -17 46 -32 109 -36 153 -3 41 -9 92 -12 112 -5 34 -3 39 22 48 73 28 122
94 151 205 17 63 17 266 0 363 -14 80 -13 81 57 45 50 -25 264 -102 368 -132
127 -37 366 -85 514 -103 145 -17 657 -18 780 0 179 26 230 34 246 38 14 4 16
-7 14 -83 -2 -93 -11 -143 -26 -143 -5 0 -9 -6 -9 -13 0 -7 -23 -37 -50 -67
-61 -66 -101 -123 -120 -170 -16 -38 -177 -277 -220 -325 -14 -16 -33 -40 -41
-51 -8 -12 -50 -75 -93 -140 -43 -66 -87 -130 -96 -144 -39 -59 -50 -129 -24
-151 14 -11 32 -9 120 13 130 34 214 73 492 232 488 278 676 418 972 722 523
537 825 1095 954 1759 36 186 67 535 47 535 -6 0 -11 -16 -11 -37 0 -20 -10
-58 -22 -84 -16 -37 -28 -50 -50 -54 -16 -4 -32 -14 -35 -22 -4 -9 -14 -13
-27 -9 -38 9 -61 -30 -80 -133 -10 -51 -15 -100 -12 -108 3 -8 -3 -58 -13
-111 -11 -53 -22 -120 -25 -148 -4 -29 -18 -89 -32 -135 -14 -46 -27 -97 -29
-114 -12 -82 -133 -389 -171 -433 -10 -12 -32 -48 -49 -79 -17 -32 -57 -94
-90 -138 -33 -43 -64 -86 -70 -96 -28 -46 -182 -209 -197 -209 -5 0 -8 13 -8
30 0 27 -29 58 -42 45 -2 -3 -29 -8 -59 -11 -30 -3 -59 -10 -66 -16 -8 -7 -13
3 -18 36 -7 44 -5 69 15 181 6 33 16 89 21 125 6 36 12 76 14 90 2 14 8 40 14
59 6 18 10 36 9 40 -3 12 14 86 34 151 11 36 22 76 24 90 7 37 38 134 44 140
3 3 19 52 34 110 16 58 32 110 36 115 4 6 11 26 15 45 4 19 13 45 21 57 8 12
14 31 14 42 0 10 15 41 33 67 17 27 43 72 56 99 13 28 28 57 32 65 5 8 19 36
31 63 12 26 25 47 29 47 4 0 10 12 14 27 9 36 74 118 105 131 14 6 47 10 74 8
60 -4 86 2 86 22 0 13 44 62 56 62 3 0 12 7 21 15 13 14 13 18 1 37 -14 20
-13 28 9 75 12 30 23 64 23 78 0 13 5 27 10 30 6 3 10 16 10 28 1 36 31 65 70
68 71 4 97 -1 125 -27 l28 -26 -6 49 c-8 56 -37 87 -95 102 -66 17 -133 -2
-341 -96 -18 -8 -43 -17 -55 -19 -11 -2 -46 -10 -76 -19 -85 -24 -243 -46
-370 -52 -192 -8 -284 -8 -305 1 -54 23 -233 6 -450 -44 -166 -37 -286 -92
-377 -172 -36 -32 -75 -59 -85 -61 -33 -5 -93 -45 -103 -69 -23 -56 -60 -79
-118 -73 -23 2 -55 11 -71 20 -16 8 -37 12 -46 9 -14 -6 -14 -8 1 -25 17 -18
15 -19 -37 -19 -85 0 -246 -36 -355 -78 -386 -152 -619 -272 -829 -425 -240
-175 -405 -329 -473 -442 -64 -107 -69 -119 -77 -211 -4 -43 -12 -90 -17 -103
-8 -23 -10 -24 -26 -7 -14 14 -17 36 -17 119 0 56 -4 118 -8 137 -6 29 -1 54
33 140 53 134 58 152 36 144 -9 -4 -21 -15 -27 -25 -12 -22 -29 -25 -29 -5 0
44 -26 14 -74 -85 -44 -93 -55 -109 -64 -94 -10 19 1 57 38 126 24 44 72 169
65 169 -3 0 -20 -30 -39 -67 -19 -38 -35 -60 -36 -50 0 10 4 26 9 35 4 9 11
38 14 65 8 61 -10 63 -38 4 -10 -23 -26 -53 -34 -66 -9 -13 -16 -30 -17 -38
-3 -19 -12 -28 -20 -20 -3 3 -1 27 5 54 7 26 13 55 14 63 1 8 5 17 9 20 21 16
29 133 10 168 -21 41 -24 59 -23 160 0 57 -3 90 -9 87 -6 -4 -10 -12 -10 -19
0 -7 -8 -22 -18 -34 -10 -11 -27 -48 -38 -81 -10 -34 -22 -61 -25 -61 -4 0
-10 -20 -13 -45 -14 -87 -39 -47 -50 79 -4 43 -16 102 -27 130 -19 49 -30 101
-33 156 -1 14 -4 30 -7 35 -19 32 -32 183 -24 283 7 83 12 95 20 52 5 -28 25
-52 38 -47 15 5 20 57 6 73 -6 7 -14 12 -18 10 -4 -3 -13 -1 -21 4 -11 7 -11
11 -1 24 8 9 20 16 27 16 21 0 17 17 -6 23 -16 4 -20 14 -20 47 0 36 6 48 36
76 35 34 54 42 54 25 0 -5 5 -22 11 -38 10 -27 11 -27 25 -9 18 26 19 70 0 63
-10 -4 -12 4 -10 31 5 62 16 74 125 138 27 16 59 46 59 56 0 4 -8 8 -17 8 -19
1 -69 37 -61 45 2 2 48 6 101 8 54 3 103 9 110 15 7 6 26 13 42 17 l30 6 -33
-17 c-34 -18 -57 -56 -48 -81 6 -15 47 -18 62 -3 5 5 27 16 49 25 32 12 34 14
12 11 -30 -4 -31 1 -12 46 4 11 0 18 -14 23 -32 10 -111 97 -100 111 6 8 -6
13 -45 18 -67 7 -86 14 -86 31 0 33 198 63 310 48 50 -7 55 -10 58 -35 2 -17
-1 -28 -9 -28 -7 0 -10 -2 -7 -5 3 -3 17 -1 32 4 31 12 35 41 6 48 -24 6 -24
4 0 45 l19 33 -67 3 c-75 3 -102 9 -102 22 0 12 73 50 94 50 33 0 -21 77 -68
98 -16 7 -86 18 -157 24 -135 13 -170 30 -85 42 52 8 74 27 51 46 -8 7 -25 10
-37 7 -36 -9 -51 5 -32 31 25 36 107 30 250 -18 121 -41 177 -49 190 -28 4 6
-2 19 -14 29 -12 9 -22 24 -22 33 0 22 -16 20 -33 -5 -14 -19 -19 -20 -78 -9
-35 6 -89 23 -119 36 -52 24 -54 26 -36 40 11 7 35 17 54 20 l35 7 -26 14
c-45 23 -34 42 26 45 l52 4 -42 19 c-24 11 -43 23 -43 27 0 5 15 15 33 23 l32
15 -32 -5 c-27 -4 -33 -1 -33 13 0 19 14 44 24 43 3 0 16 3 28 8 24 9 18 15
-26 25 -43 11 -19 25 44 27 65 2 176 -7 190 -16 6 -3 10 -3 10 0 0 3 -15 13
-32 21 l-33 15 35 -5 35 -6 -47 30 c-52 33 -61 50 -25 50 18 0 19 2 7 10 -8 5
-25 10 -37 10 -26 0 -29 19 -10 53 17 31 27 37 69 37 24 0 40 -6 46 -16 9 -16
75 -32 132 -33 l25 0 -27 20 c-32 24 -35 36 -10 42 13 3 10 7 -13 17 -32 14
-153 18 -197 7 -21 -6 -28 -3 -33 12 -3 12 -25 25 -60 36 -60 19 -69 31 -28
41 l26 7 -32 16 c-17 9 -29 20 -26 23 4 3 -12 9 -34 13 -23 4 -41 10 -41 14 0
10 -52 35 -67 32 -7 -1 -13 5 -13 14 0 13 -6 11 -31 -10 -18 -14 -37 -24 -43
-21 -128 57 -294 93 -310 68z m701 -458 c-3 -3 -12 -4 -19 -1 -8 3 -5 6 6 6
11 1 17 -2 13 -5z m-877 -213 c-13 -25 -32 -28 -23 -3 7 18 25 34 31 27 2 -2
-1 -13 -8 -24z m588 -10 l33 -28 -59 -6 c-33 -4 -82 -18 -111 -32 -28 -15 -68
-29 -89 -32 -33 -6 -36 -5 -24 9 10 13 10 17 0 21 -9 4 -9 6 2 6 8 1 29 8 45
17 92 50 142 74 155 73 8 0 30 -12 48 -28z m-452 -191 c25 -10 26 -12 10 -29
-10 -11 -29 -17 -51 -16 -19 0 -35 -2 -35 -6 0 -10 -39 -18 -44 -10 -3 4 7 21
20 39 27 34 53 40 100 22z m119 -40 c-3 -5 -14 -10 -23 -10 -15 0 -15 2 -2 10
20 13 33 13 25 0z m-45 -14 c0 -2 -13 -9 -30 -15 -35 -12 -41 -5 -7 9 25 10
37 12 37 6z m155 -136 c3 -5 12 -7 20 -3 9 3 15 -1 15 -10 0 -18 -19 -25 -72
-29 -64 -4 -78 34 -18 45 43 8 49 7 55 -3z m198 -96 c-10 -7 -25 -13 -33 -13
-10 -1 -7 6 10 18 13 11 28 17 33 14 4 -3 0 -11 -10 -19z m-1348 -2 c21 -15
15 -32 -13 -32 -16 0 -55 -10 -88 -23 -32 -13 -73 -27 -89 -31 l-30 -8 29 31
c46 48 161 86 191 63z m345 -8 c0 -8 -5 -12 -10 -9 -6 4 -8 11 -5 16 9 14 15
11 15 -7z m113 -34 c20 0 37 -4 37 -10 0 -15 -72 -11 -100 6 l-25 15 25 -5
c14 -3 42 -6 63 -6z m32 -129 c17 -7 14 -11 -27 -32 -27 -13 -48 -28 -48 -35
0 -7 -6 -15 -12 -18 -10 -5 -10 -7 -1 -12 15 -6 3 -34 -28 -68 -16 -16 -23
-18 -44 -8 -14 7 -25 20 -25 31 0 14 -5 19 -15 15 -8 -4 -15 -1 -15 5 0 42
113 132 165 130 16 0 39 -4 50 -8z m670 -221 c-21 -8 -35 -4 -35 9 0 5 12 6
27 3 24 -5 25 -6 8 -12z m-55 -20 c0 -5 -4 -10 -10 -10 -5 0 -10 5 -10 10 0 6
5 10 10 10 6 0 10 -4 10 -10z m-60 -84 c0 -15 -14 -35 -21 -30 -15 9 -10 34 6
34 8 0 15 -2 15 -4z m-2260 -76 c0 -5 -15 -9 -32 -9 l-33 1 30 8 c17 4 31 8
33 9 1 0 2 -3 2 -9z m876 -27 c-31 -16 -86 -34 -86 -28 0 9 76 44 95 44 16 0
14 -3 -9 -16z m-227 -33 c6 0 11 -2 11 -5 0 -3 -38 -43 -85 -89 -74 -73 -85
-81 -85 -60 0 21 -3 24 -27 19 -24 -6 -26 -5 -12 7 8 7 29 31 45 53 16 22 42
57 58 77 l30 37 27 -20 c15 -10 32 -19 38 -19z m1149 18 c9 -9 12 -9 12 0 0
26 18 10 33 -29 l16 -40 -32 -19 c-18 -11 -39 -20 -47 -21 -8 0 -23 -2 -32 -4
-25 -5 -23 26 4 61 13 15 21 36 20 46 -4 21 9 23 26 6z m-1018 -8 c0 -5 -5
-10 -11 -10 -5 0 -7 5 -4 10 3 6 8 10 11 10 2 0 4 -4 4 -10z m-1404 -125 c-16
-24 -15 -25 2 -25 10 0 38 9 61 21 24 11 45 19 47 16 11 -10 -48 -118 -76
-138 -17 -13 -30 -32 -30 -45 0 -29 -49 -41 -67 -16 -27 35 -3 132 45 185 32
34 39 35 18 2z m-721 -25 c-3 -5 0 -10 9 -10 34 0 25 -62 -12 -81 -15 -7 -35
-20 -44 -28 -10 -8 -18 -11 -18 -8 0 11 -37 -29 -50 -53 -6 -11 -16 -17 -22
-14 -6 4 -9 3 -5 -2 3 -5 -1 -18 -9 -29 -8 -10 -14 -15 -14 -10 0 5 -7 0 -15
-11 -15 -17 -15 -16 -2 11 8 17 11 39 7 50 -8 22 11 74 42 118 27 38 155 103
133 67z m3485 -4 c0 -9 -30 -14 -35 -6 -4 6 3 10 14 10 12 0 21 -2 21 -4z
m-2460 -187 c-15 -34 -20 -38 -20 -21 0 25 33 89 38 74 1 -5 -6 -29 -18 -53z
m2390 36 c0 -8 -4 -15 -9 -15 -13 0 -22 16 -14 24 11 11 23 6 23 -9z m-4045
-36 c11 -16 1 -19 -13 -3 -7 8 -8 14 -3 14 5 0 13 -5 16 -11z m7843 -3 c21
-13 13 -24 -30 -44 -161 -76 -159 -75 -242 -76 -86 -1 -170 18 -164 36 3 7 13
16 24 22 10 6 22 16 26 21 4 6 8 7 8 3 0 -4 12 -3 28 3 15 6 36 13 47 15 11 2
43 8 70 14 28 5 59 12 70 14 31 6 150 0 163 -8z m-6663 -48 c-27 -29 -51 -55
-53 -58 -3 -3 0 5 7 17 13 26 75 93 86 93 4 0 -14 -24 -40 -52z m-748 -50 c-3
-8 -6 -5 -6 6 -1 11 2 17 5 13 3 -3 4 -12 1 -19z m792 -282 c-42 -41 -129 -60
-129 -27 0 9 110 49 139 50 9 1 5 -8 -10 -23z m-957 -18 c32 -22 33 -61 1
-101 l-20 -26 -16 62 c-8 34 -18 70 -22 80 -6 14 -3 16 11 10 11 -3 31 -15 46
-25z m-453 -70 c5 -13 25 -78 44 -145 33 -119 33 -121 11 -105 -12 9 -25 26
-27 37 -3 11 -17 54 -32 95 -14 41 -28 84 -29 96 -2 11 -6 26 -10 32 -5 8 0
12 14 12 12 0 24 -9 29 -22z m1838 -109 c-13 -21 -53 -36 -65 -24 -10 10 48
54 64 48 10 -4 11 -9 1 -24z m2533 -14 c7 -22 8 -40 2 -52 -12 -21 -62 -70
-62 -59 0 4 -9 2 -20 -4 -11 -6 -20 -8 -20 -6 0 13 35 76 42 76 4 0 8 7 8 15
0 19 21 65 31 65 4 0 13 -16 19 -35z m-4834 -80 c3 -14 10 -25 15 -25 5 0 9
-12 9 -27 0 -22 28 -149 44 -198 1 -5 6 -22 10 -37 5 -16 17 -29 31 -32 46
-12 183 -338 158 -379 -3 -4 -18 6 -34 24 -27 30 -33 43 -26 53 1 2 -5 12 -14
22 -9 11 -20 30 -24 44 -4 14 -25 62 -46 108 -21 45 -38 85 -38 87 -1 3 -1 10
-1 16 0 5 -13 22 -29 37 -24 22 -34 48 -60 152 -17 69 -33 153 -36 185 l-6 60
20 -32 c11 -18 23 -44 27 -58z m2455 -188 c-9 -17 -27 -41 -40 -54 -13 -13
-21 -23 -17 -23 7 0 -21 -37 -119 -156 -83 -101 -94 -116 -90 -128 2 -6 6 -25
8 -42 3 -17 13 -48 22 -67 19 -41 87 -107 110 -107 7 0 18 -7 23 -15 4 -9 21
-18 36 -21 40 -7 94 -30 112 -49 17 -16 34 -20 34 -7 0 5 10 13 23 19 20 9 24
7 41 -28 l19 -38 -29 -44 c-16 -25 -53 -65 -83 -90 -53 -45 -53 -46 -74 -26
-15 13 -36 19 -71 20 -28 0 -60 2 -71 5 -52 10 -169 23 -176 18 -4 -2 -41 -6
-81 -9 -40 -2 -74 -9 -76 -15 -2 -5 -17 -10 -32 -10 -16 0 -31 -4 -34 -9 -6
-9 100 -60 182 -86 57 -18 56 -17 43 -43 -5 -9 -17 -35 -27 -57 -11 -22 -32
-53 -49 -69 l-30 -29 -130 7 c-71 3 -156 9 -187 12 -50 6 -59 4 -65 -11 -14
-39 -174 -205 -197 -205 -9 0 -16 -4 -16 -9 0 -14 -46 -19 -63 -6 -17 12 -15
58 2 80 5 5 12 24 15 40 4 17 31 59 61 93 37 43 52 68 48 80 -3 9 -3 14 1 10
8 -7 27 7 79 55 17 15 26 27 21 28 -5 0 1 4 13 9 16 7 22 16 19 32 -1 13 8 41
22 63 14 21 25 48 25 60 -1 29 -14 66 -22 61 -4 -3 -13 -1 -21 4 -10 6 -25 -7
-57 -51 -24 -32 -43 -61 -43 -64 0 -4 -18 -35 -39 -71 -25 -41 -38 -75 -37
-93 2 -27 1 -28 -27 -19 -15 6 -49 25 -74 42 -45 30 -46 32 -46 82 0 29 4 57
8 63 4 7 5 15 2 18 -7 6 24 68 70 140 18 29 33 56 33 62 0 5 26 40 58 78 l57
67 -3 75 c-2 67 1 81 31 145 19 39 42 97 51 129 9 31 21 57 27 57 5 0 9 5 9
10 0 15 66 80 82 81 7 1 26 3 42 5 16 2 36 -1 45 -5 9 -5 34 -10 56 -12 22 -1
45 -7 52 -12 13 -9 67 -18 128 -20 50 -1 177 13 190 21 18 12 79 32 98 32 9 0
17 5 17 10 0 6 13 10 29 10 17 0 32 4 35 8 3 5 18 7 35 4 l29 -4 -17 -31z
m-2100 -13 c22 -36 22 -37 4 -50 -10 -8 -20 -12 -22 -10 -5 4 -11 96 -7 96 1
0 12 -16 25 -36z m4639 -198 c0 -3 -4 -8 -10 -11 -5 -3 -10 -1 -10 4 0 6 5 11
10 11 6 0 10 -2 10 -4z m-1136 -128 c-16 -96 -45 -202 -56 -206 -4 -2 -8 -12
-8 -22 0 -20 -67 -191 -81 -204 -5 -6 -9 -17 -9 -27 0 -9 -9 -28 -21 -43 -11
-14 -17 -26 -14 -26 4 0 3 -6 -2 -12 -6 -7 -13 -24 -16 -39 -13 -53 81 -76
158 -39 22 11 44 19 48 20 12 0 37 -27 37 -40 0 -6 4 -9 9 -6 5 3 14 0 20 -7
8 -11 1 -18 -37 -35 -168 -75 -284 -96 -489 -89 -179 6 -297 33 -437 102 -86
42 -166 104 -166 129 0 6 -7 24 -15 39 -16 31 -23 146 -10 167 5 9 4 11 -3 6
-23 -14 3 30 65 111 36 46 71 82 81 82 9 0 43 2 75 4 31 2 57 0 57 -3 0 -4 6
-7 13 -8 20 -1 84 -27 99 -40 8 -7 35 -13 59 -13 24 -1 53 -7 64 -12 11 -6 25
-11 30 -12 6 0 27 -11 47 -25 41 -27 53 -60 46 -130 -2 -27 0 -40 9 -40 8 0 1
-22 -19 -60 -16 -33 -34 -60 -37 -60 -4 0 -8 -7 -8 -15 0 -11 4 -12 13 -4 9 8
13 4 16 -12 2 -18 9 -23 33 -23 26 0 36 9 77 69 26 39 48 75 48 80 1 6 11 23
24 39 14 16 22 35 19 43 -3 7 2 13 11 13 9 0 15 3 14 8 -3 14 14 62 23 62 5 0
9 9 9 19 0 10 9 29 21 42 11 13 17 18 13 10 -5 -9 -3 -12 5 -7 6 4 9 11 6 16
-3 5 1 14 8 22 7 7 19 28 26 46 7 17 17 32 21 32 4 0 13 14 20 30 7 17 16 30
19 30 4 0 15 16 24 35 9 19 21 35 25 35 5 0 14 12 20 26 21 45 29 16 16 -58z
m3325 -35 c7 -43 16 -87 20 -98 5 -11 14 -40 21 -65 27 -101 99 -209 149 -225
12 -3 21 -11 21 -16 0 -5 9 -9 20 -9 11 0 20 -4 20 -10 0 -5 7 -10 15 -10 8 0
15 -5 15 -11 0 -5 5 -7 10 -4 19 12 10 -42 -10 -60 -21 -19 -57 -15 -82 8 -7
6 -20 13 -28 15 -22 4 -144 142 -126 142 3 0 -5 30 -18 68 -21 60 -42 190 -50
310 -5 70 10 47 23 -35z m-1795 -458 c3 -8 1 -15 -4 -15 -6 0 -10 7 -10 15 0
8 2 15 4 15 2 0 6 -7 10 -15z m-5221 -202 c23 -44 22 -67 -2 -60 -21 5 -31
-10 -31 -48 0 -13 -5 -27 -12 -31 -6 -4 -8 -3 -4 4 3 6 0 16 -7 24 -7 7 -23
30 -36 50 -25 43 -34 129 -13 136 6 2 10 8 6 13 -3 5 1 9 9 9 8 0 25 9 38 19
l24 19 6 -51 c3 -29 13 -66 22 -84z m-1071 30 c34 -72 34 -74 44 -139 5 -31 3
-42 -8 -47 -20 -7 -46 73 -63 198 -1 11 -6 28 -10 38 -4 9 -4 17 -1 17 4 0 21
-30 38 -67z m138 -193 c4 -3 19 -24 34 -47 24 -39 24 -43 8 -43 -10 0 -35 15
-55 33 -34 29 -37 35 -31 70 7 37 7 38 22 15 9 -13 19 -25 22 -28z m610 -24
c0 -3 11 -17 25 -32 14 -15 25 -32 25 -39 0 -7 18 -30 40 -51 22 -22 45 -54
51 -72 9 -29 8 -35 -8 -47 -10 -8 -24 -15 -30 -16 -7 -1 -17 -2 -22 -3 -5 0
-13 -4 -17 -8 -4 -5 -20 -8 -35 -8 -27 0 -27 0 -27 -73 0 -56 -5 -84 -22 -117
-19 -37 -24 -41 -32 -27 -5 10 -6 27 -2 40 20 63 -14 344 -47 383 -16 19 -27
67 -20 87 5 13 19 -12 49 -82 23 -56 42 -105 42 -111 0 -5 5 -10 10 -10 13 0
13 3 -5 47 -23 60 -34 144 -22 163 9 16 11 16 28 -1 11 -11 19 -21 19 -23z
m2957 -23 c-3 -3 -11 -2 -17 2 -8 5 -7 11 2 22 12 15 13 14 16 -1 2 -10 1 -20
-1 -23z m-1324 -155 c-35 -51 -36 -52 -72 -113 -17 -27 -31 -45 -31 -39 0 33
35 102 75 146 25 28 45 55 46 62 0 7 3 6 6 -2 3 -7 -8 -31 -24 -54z m-1413 24
c0 -5 -7 -17 -15 -28 -15 -19 -20 -8 -9 20 6 17 24 22 24 8z m-1030 -31 c0 -6
-4 -13 -10 -16 -5 -3 -10 1 -10 9 0 9 5 16 10 16 6 0 10 -4 10 -9z m244 -240
c4 -5 -10 -4 -29 2 -23 7 -31 13 -23 18 12 8 42 -4 52 -20z m2062 -27 c-5 -19
-10 -24 -17 -17 -8 8 -7 18 1 33 15 28 24 19 16 -16z m-1576 -88 c0 -2 -7 -7
-16 -10 -8 -3 -12 -2 -9 4 6 10 25 14 25 6z m-87 -20 c16 -12 16 -14 1 -20
-22 -9 -54 -7 -54 2 0 9 21 32 30 32 3 0 13 -7 23 -14z m-158 -321 c-4 -38 -9
-81 -11 -95 -3 -14 -7 -45 -10 -70 -10 -76 -75 -127 -69 -53 2 21 -2 51 -10
68 -36 80 -34 113 6 157 16 18 29 39 29 47 0 8 3 11 7 8 3 -4 15 8 26 26 l20
32 9 -25 c5 -13 6 -56 3 -95z m-246 -20 c11 6 51 -143 62 -225 4 -38 4 -83 -2
-110 -10 -45 -43 -100 -53 -89 -3 3 -8 68 -10 145 -2 76 -8 149 -12 161 -5 12
-7 50 -5 85 2 35 6 55 8 45 3 -9 8 -15 12 -12z m-445 -52 c8 -16 27 -42 43
-60 15 -18 41 -49 56 -70 16 -21 69 -91 118 -156 55 -73 83 -117 73 -115 -16
3 -52 42 -158 171 -17 21 -41 50 -53 64 -13 14 -23 31 -23 37 0 6 -5 4 -10 -4
-9 -13 -13 -12 -26 5 -13 16 -17 17 -22 5 -7 -20 -32 66 -32 113 0 44 14 48
34 10z m570 -188 c4 -11 -2 -15 -22 -15 -26 1 -26 1 -8 15 24 18 23 18 30 0z
m-213 -92 c38 -41 64 -82 56 -89 -11 -12 -36 12 -81 77 -51 75 -39 81 25 12z
m-1861 -148 c0 -13 -4 -26 -9 -29 -5 -4 -7 3 -4 14 3 11 0 20 -6 20 -6 0 -11
7 -11 15 0 9 6 12 15 9 8 -4 15 -17 15 -29z m536 -25 c6 -14 11 -68 10 -120
-1 -87 -4 -101 -35 -165 l-35 -70 -13 45 c-24 78 -32 235 -14 268 6 11 7 22 4
26 -3 3 1 6 10 6 8 0 19 9 22 20 9 27 37 22 51 -10z m1334 20 c0 -5 -4 -10 -9
-10 -6 0 -13 5 -16 10 -3 6 1 10 9 10 9 0 16 -4 16 -10z m-304 -108 c8 -53 13
-143 14 -199 0 -76 3 -104 14 -110 8 -4 21 -26 30 -47 19 -45 19 -45 -23 7
l-30 38 -21 -49 c-12 -27 -38 -66 -60 -87 l-38 -37 -7 32 c-5 22 -2 36 9 48
12 14 15 46 17 152 1 132 10 181 44 255 8 17 17 47 20 69 4 21 9 35 12 32 4
-3 12 -50 19 -104z m2704 5 c-12 -37 -58 -92 -68 -82 -4 3 4 23 16 43 13 20
31 54 40 74 13 30 18 33 20 18 2 -11 -2 -35 -8 -53z m-3303 -388 c14 -18 43
-98 43 -122 0 -32 -34 -14 -55 28 -11 22 -24 43 -29 46 -8 6 -3 56 12 124 6
28 6 27 12 -16 3 -26 11 -53 17 -60z m-1387 -229 c18 -45 30 -83 28 -85 -3 -3
-17 25 -31 62 -38 99 -40 103 -34 103 3 0 19 -36 37 -80z m219 -321 c29 -15
46 -35 73 -88 37 -73 35 -76 -27 -39 -40 24 -121 120 -151 179 -13 27 -24 51
-24 54 0 3 21 -15 46 -40 25 -26 63 -55 83 -66z m3488 -166 c-3 -10 -5 -4 -5
12 0 17 2 24 5 18 2 -7 2 -21 0 -30z m-2349 5 c7 -7 12 -9 12 -5 0 10 23 -9
58 -47 15 -16 41 -43 57 -61 17 -18 39 -45 50 -60 11 -16 32 -44 48 -63 25
-32 35 -62 22 -62 -38 0 -285 227 -285 261 0 10 -5 21 -11 25 -8 4 -7 9 2 15
19 12 33 11 47 -3z m-887 -135 c13 -16 12 -17 -3 -4 -10 7 -18 15 -18 17 0 8
8 3 21 -13z m1205 -199 c19 -5 28 -19 44 -73 63 -213 109 -430 135 -635 19
-152 17 -242 -6 -280 l-17 -28 -10 53 c-6 30 -20 135 -31 234 -20 173 -78 442
-129 600 -11 33 -22 72 -26 87 -3 14 -9 34 -13 44 -5 14 -3 16 11 11 10 -4 29
-10 42 -13z m-96 -703 c27 -86 56 -182 65 -213 8 -32 20 -58 25 -58 6 0 10 -7
10 -15 0 -8 4 -15 10 -15 13 0 51 -87 57 -130 4 -25 0 -40 -11 -49 -11 -9 -16
-10 -16 -2 0 6 -4 11 -9 11 -5 0 -8 -46 -8 -102 1 -85 -3 -111 -20 -149 -17
-39 -48 -78 -41 -52 2 7 -12 109 -17 123 -1 3 -7 18 -13 33 -7 16 -12 34 -12
40 0 35 -136 196 -166 197 -5 0 -21 10 -34 23 -14 12 -27 22 -30 23 -24 4 -44
24 -74 76 -20 32 -36 64 -36 69 0 5 -4 9 -9 9 -5 0 -11 8 -14 18 -2 9 -8 25
-12 35 -7 17 -5 18 14 8 11 -6 30 -15 41 -21 26 -13 80 -13 80 1 0 5 5 7 11 4
5 -4 27 5 47 19 56 38 85 121 86 240 1 112 2 111 76 -123z m-492 74 c-3 -3 -9
2 -12 12 -6 14 -5 15 5 6 7 -7 10 -15 7 -18z m822 -418 c0 -7 13 -24 30 -39
16 -14 38 -46 49 -70 10 -24 26 -49 35 -57 9 -7 16 -20 16 -27 0 -8 4 -14 9
-14 5 0 18 -21 30 -47 12 -27 33 -66 46 -88 13 -22 28 -49 33 -60 6 -11 67
-137 137 -280 70 -143 151 -314 180 -380 182 -416 273 -854 263 -1264 -4 -184
-7 -194 -79 -285 -43 -54 -48 -85 -24 -144 23 -54 30 -180 15 -252 -17 -78
-39 -80 -93 -9 -44 57 -62 68 -83 47 -13 -13 -11 -25 16 -97 17 -47 30 -102
30 -128 0 -53 -40 -140 -103 -222 -40 -52 -112 -110 -123 -99 -3 3 -7 23 -10
44 -3 22 -14 74 -25 118 -12 43 -22 86 -24 96 -17 90 -75 232 -176 431 -27 53
-49 103 -49 112 0 8 -7 17 -15 21 -8 3 -15 13 -15 23 0 10 -38 95 -84 188
-100 204 -186 390 -186 405 0 6 -14 40 -30 77 -17 36 -32 76 -34 87 -3 12 -12
41 -21 66 -9 25 -19 74 -21 110 -7 92 -16 163 -30 230 -3 14 -6 34 -8 46 -2
11 -5 25 -8 30 -6 9 -18 70 -23 114 -1 14 -8 39 -14 55 -7 17 -12 31 -11 33 1
1 -1 29 -5 61 -5 44 -2 74 11 117 10 33 21 61 25 64 3 3 13 19 22 35 8 17 31
48 51 69 91 102 124 219 151 529 3 32 7 62 9 66 5 8 18 86 20 126 1 17 18 51
38 77 19 25 38 58 42 72 6 26 36 37 36 13z m-867 -100 c18 -7 50 -14 72 -16
25 -1 56 -13 82 -32 31 -22 49 -28 71 -24 27 4 34 -1 73 -53 24 -31 66 -91 94
-132 28 -41 66 -91 85 -110 31 -33 32 -35 11 -38 -11 -2 -28 4 -37 12 -8 9
-22 16 -30 16 -8 0 -14 4 -14 8 0 4 -36 9 -81 10 -83 3 -95 -5 -40 -28 44 -18
53 -79 26 -183 -15 -57 -43 -112 -53 -103 -3 3 -6 31 -8 63 -4 65 -24 175 -34
183 -4 3 -9 16 -12 30 -3 14 -7 32 -9 40 -3 10 3 14 16 13 16 -1 13 5 -15 29
-185 161 -270 259 -270 312 0 20 29 21 73 3z m-313 -274 c0 -7 4 -13 9 -13 5
0 12 -11 15 -25 4 -14 10 -25 15 -25 5 0 15 -16 21 -35 6 -19 16 -35 21 -35 5
0 9 -4 9 -10 0 -9 50 -68 115 -134 17 -17 50 -55 75 -85 35 -43 39 -51 20 -41
-44 23 -101 63 -96 67 2 2 -10 19 -26 36 -17 18 -43 49 -59 70 -35 48 -107
127 -116 127 -3 0 -3 -26 1 -57 4 -32 11 -94 17 -138 15 -129 13 -279 -5 -312
-10 -18 -16 -22 -17 -13 -7 49 -10 105 -13 275 -2 105 -6 237 -10 294 -5 92
-4 102 9 85 8 -10 15 -25 15 -31z m2737 -305 c-3 -8 -6 -5 -6 6 -1 11 2 17 5
13 3 -3 4 -12 1 -19z m-4042 -211 c31 -88 74 -200 96 -250 50 -113 60 -159 48
-217 -5 -25 -12 -62 -16 -83 -3 -21 -10 -40 -14 -43 -5 -3 -9 -13 -9 -22 -1
-9 -7 -30 -14 -47 l-13 -30 -13 25 c-28 51 -65 209 -101 430 -24 144 -24 148
-33 295 -4 61 -9 124 -12 140 -4 29 -4 29 10 -5 9 -19 40 -106 71 -193z m4060
132 c-4 -13 -1 -19 9 -19 8 0 17 -9 21 -19 6 -18 -22 -291 -31 -300 -2 -2 -5
45 -6 105 -2 155 -5 222 -13 252 -5 22 -4 24 10 12 9 -7 13 -21 10 -31z
m-3274 -368 c5 -58 14 -141 20 -185 27 -186 -17 -332 -115 -383 l-29 -15 21
30 c21 29 22 63 3 107 -15 34 -56 170 -53 178 1 4 -5 21 -14 38 -8 17 -21 58
-29 92 -7 34 -22 97 -34 140 -18 71 -19 82 -6 113 18 43 39 52 76 30 25 -15
32 -15 62 -2 19 8 38 20 42 26 17 28 47 -61 56 -169z m2387 154 c-3 -3 -9 2
-12 12 -6 14 -5 15 5 6 7 -7 10 -15 7 -18z m25 -32 c3 -10 21 -55 41 -100 38
-90 40 -108 4 -42 -13 23 -29 52 -36 65 -7 13 -15 32 -17 42 -2 9 -6 25 -10
35 -4 9 -3 17 3 17 5 0 12 -8 15 -17z m-1553 -228 c7 -8 17 -15 23 -15 5 0 20
-12 33 -27 13 -16 24 -23 24 -18 0 6 13 -9 28 -33 16 -23 31 -40 34 -37 2 3
13 -13 24 -35 10 -22 22 -40 27 -40 4 0 7 -6 7 -14 0 -8 4 -16 8 -18 14 -6
103 -153 147 -243 24 -49 76 -171 115 -270 40 -99 106 -250 147 -335 41 -85
110 -227 153 -315 212 -436 250 -529 265 -643 7 -52 -20 -71 -93 -67 -31 1
-65 6 -74 10 -10 4 -31 0 -49 -9 -17 -9 -35 -13 -39 -11 -5 3 -11 -14 -15 -37
-3 -24 -18 -86 -32 -138 -28 -107 -55 -224 -79 -350 -18 -93 -38 -128 -135
-242 -31 -36 -61 -72 -65 -80 -12 -18 -104 -91 -109 -86 -2 2 4 40 14 85 l19
82 -41 7 c-22 3 -70 7 -106 7 -39 1 -71 6 -79 14 -7 7 -19 13 -27 13 -20 0
-145 123 -149 147 -3 12 -12 35 -20 52 -9 17 -16 33 -17 36 0 2 -7 24 -15 47
-9 24 -17 50 -19 59 -14 66 -53 172 -90 247 -25 50 -45 93 -45 96 0 10 -68 68
-96 82 -13 7 -24 10 -24 6 2 -47 50 -316 58 -324 7 -7 8 -16 3 -22 -5 -7 -3
-70 6 -151 12 -107 20 -144 33 -155 9 -8 23 -37 30 -65 7 -27 19 -57 27 -66 7
-8 13 -24 13 -35 0 -11 5 -25 10 -30 6 -6 13 -65 16 -131 6 -98 3 -136 -11
-197 -16 -68 -24 -84 -74 -139 -31 -34 -71 -91 -88 -127 -18 -36 -43 -76 -55
-88 l-24 -21 1 92 c0 98 -13 285 -21 298 -2 4 -11 63 -19 131 -26 209 -39 301
-60 418 -9 47 -22 123 -30 170 -9 47 -22 121 -30 165 -9 44 -17 105 -19 135
-4 57 -18 96 -61 165 -14 22 -30 51 -37 65 -7 14 -28 49 -46 79 -19 29 -35 59
-36 65 -1 6 -11 27 -22 46 -46 76 -82 162 -91 215 -2 17 -13 62 -24 102 -11
39 -22 85 -24 103 -2 17 -7 46 -11 63 -12 56 -15 89 -19 226 -4 106 0 158 16
249 11 64 22 136 23 161 4 59 16 123 27 137 5 6 10 24 11 40 1 16 18 56 37 89
20 33 35 62 34 65 -1 3 4 10 11 16 9 8 42 -92 140 -435 148 -520 175 -609 187
-617 5 -3 20 -30 34 -60 14 -30 30 -60 35 -67 47 -55 60 -74 60 -83 0 -6 7
-17 15 -24 8 -7 15 -21 15 -31 0 -12 10 -23 25 -29 14 -5 25 -13 25 -18 0 -20
58 -70 88 -75 30 -6 33 -5 27 13 -5 15 -2 20 10 20 14 0 16 7 13 31 -4 23 1
34 20 49 15 12 22 26 18 35 -3 9 1 18 9 21 8 4 13 10 10 14 -3 4 2 13 10 20
13 10 19 9 35 -10 30 -34 33 -9 14 111 -9 57 -18 120 -19 139 -2 19 -8 58 -14
85 -5 28 -8 84 -5 125 2 41 6 104 8 140 8 127 7 216 -4 263 -6 27 -9 51 -6 55
7 12 -21 132 -35 150 -8 9 -48 51 -91 92 -42 41 -82 88 -87 103 -15 39 -14 96
2 110 25 23 58 38 70 30 26 -16 89 -6 86 15 -1 4 0 9 1 12 7 17 6 58 -1 78
-15 39 13 78 54 80 20 1 40 -5 47 -13z m-1420 -473 c0 -36 -110 -216 -123
-202 -3 3 -1 30 3 61 8 54 33 99 55 99 6 0 19 16 28 35 20 42 37 45 37 7z
m4580 -172 c0 -5 -5 -10 -11 -10 -5 0 -7 5 -4 10 3 6 8 10 11 10 2 0 4 -4 4
-10z m443 -143 c-4 -18 -3 -19 6 -7 9 13 11 13 11 -3 0 -14 4 -16 19 -8 20 11
31 5 31 -16 0 -21 -66 -44 -113 -41 l-42 3 23 20 c12 11 22 24 22 30 0 15 33
54 41 49 4 -2 5 -14 2 -27z m-315 -55 c-5 -19 -15 -78 -22 -131 -13 -107 -20
-115 -105 -126 l-42 -5 5 34 c3 19 17 65 31 101 13 36 24 69 23 73 -1 4 6 21
15 39 9 18 17 40 17 51 0 35 20 42 55 19 30 -20 32 -23 23 -55z m560 -35 c27
-40 29 -46 10 -33 -12 9 -25 16 -29 16 -17 0 21 -184 56 -263 36 -86 37 -88
26 -155 -6 -37 -13 -87 -17 -112 -3 -24 -10 -53 -16 -63 -18 -34 0 -29 41 12
22 22 47 61 57 89 l18 49 48 -30 c26 -17 48 -32 48 -35 0 -2 -7 -32 -16 -66
-9 -33 -19 -83 -24 -110 -8 -54 5 -195 21 -211 5 -5 9 -17 9 -26 0 -30 31 -73
82 -114 28 -22 57 -43 66 -47 11 -4 3 -7 -21 -7 -21 -1 -54 6 -75 14 -41 18
-124 94 -116 107 7 10 -56 108 -69 108 -5 0 -16 8 -23 18 -13 16 -13 16 -14
-1 0 -24 -44 -67 -69 -67 -18 0 -18 2 -4 48 8 26 17 87 18 135 3 83 2 87 -14
73 -26 -24 -45 -19 -59 14 -8 17 -17 28 -22 25 -17 -10 -128 -37 -173 -42
l-47 -5 -21 49 c-11 26 -25 69 -31 96 -6 26 -15 47 -20 47 -13 0 -9 70 8 160
13 69 20 86 49 115 19 18 37 29 40 25 8 -13 83 16 124 47 42 32 52 43 91 102
27 40 28 46 15 65 -8 11 -15 29 -15 40 0 20 0 20 18 0 10 -10 32 -41 50 -67z
m-902 -365 c-9 -33 -17 -88 -17 -123 -1 -35 -4 -77 -8 -94 l-6 -30 -17 34
c-21 45 -12 131 26 244 3 9 8 25 11 34 4 11 9 13 16 6 7 -7 5 -29 -5 -71z
m309 45 c4 -22 0 -48 -14 -80 -12 -27 -21 -59 -21 -72 0 -13 -8 -43 -18 -67
-11 -24 -17 -49 -15 -56 3 -7 0 -18 -5 -25 -6 -7 -15 -30 -21 -53 -11 -41 -12
-41 -66 -47 -30 -3 -67 -2 -82 3 -33 9 -24 13 56 30 55 11 80 30 81 63 0 10 7
28 15 41 9 13 24 53 34 89 15 56 16 67 4 71 -13 5 -14 14 -4 118 1 6 19 13 43
17 4 0 10 -14 13 -32z m1085 -279 c0 -35 56 -125 107 -175 l57 -56 -26 -22
c-17 -14 -28 -38 -33 -66 -10 -58 -33 -93 -51 -78 -12 10 -84 6 -117 -6 -22
-9 -44 18 -67 80 -25 68 -29 180 -8 252 11 38 15 42 54 48 23 3 48 13 54 20
15 18 30 19 30 3z m-910 -77 c0 -5 -9 -11 -20 -14 -17 -4 -18 -2 -9 14 9 18
29 18 29 0z m-263 -223 c-3 -8 -6 -5 -6 6 -1 11 2 17 5 13 3 -3 4 -12 1 -19z
m-30 -250 c-7 -10 -22 -18 -34 -18 -30 0 -29 6 4 35 31 25 49 15 30 -17z m37
-55 c6 -36 2 -100 -7 -109 -4 -4 -7 -15 -7 -25 0 -23 -45 -76 -64 -76 -8 0
-17 13 -20 30 -4 22 -10 28 -22 23 -13 -5 -15 -1 -11 21 13 66 27 108 40 118
7 5 16 18 20 28 4 11 17 17 36 17 24 0 30 -5 35 -27z m3440 -29 c20 -3 39 -11
42 -16 7 -10 -60 -78 -76 -78 -4 0 -19 -13 -32 -29 -36 -42 -59 -52 -83 -35
-10 8 -27 14 -37 14 -19 0 -92 42 -103 60 -17 28 96 96 144 86 14 -4 40 -2 56
3 17 5 35 8 42 6 6 -2 28 -7 47 -11z m-5208 -75 c-32 -97 -64 -169 -65 -146
-1 9 3 25 8 35 8 15 45 116 65 176 4 10 9 16 12 13 3 -2 -6 -38 -20 -78z
m1311 15 c-3 -3 -12 -4 -19 -1 -8 3 -5 6 6 6 11 1 17 -2 13 -5z m-29 -78 c27
-40 28 -43 9 -38 -21 6 -21 5 -3 -23 16 -25 17 -30 4 -39 -8 -6 -22 -24 -31
-41 l-16 -30 -1 42 c0 23 5 54 12 68 8 19 8 31 -1 51 l-12 27 -32 -35 c-38
-41 -106 -93 -112 -86 -3 3 5 10 18 17 12 6 33 28 47 48 33 49 73 91 82 86 4
-2 20 -23 36 -47z m589 -38 c-3 -8 -6 -5 -6 6 -1 11 2 17 5 13 3 -3 4 -12 1
-19z m-2013 -259 c-48 -119 -197 -418 -208 -416 -6 1 -34 -34 -62 -78 -87
-133 -88 -127 -8 35 73 148 138 266 210 375 17 28 45 73 60 102 16 28 30 50
31 49 2 -2 -9 -32 -23 -67z m3461 -331 c4 -4 12 -5 19 -2 7 3 23 -15 36 -38
13 -24 45 -69 72 -101 55 -66 59 -94 23 -133 -14 -15 -25 -31 -25 -36 0 -5 -5
-6 -11 -2 -6 3 -14 3 -18 -2 -23 -33 -129 -38 -159 -8 -7 7 -29 16 -50 20 -20
4 -55 16 -77 27 -22 12 -51 23 -65 25 -37 5 -62 32 -55 59 3 12 23 50 44 84
49 78 114 114 203 114 31 0 59 -3 63 -7z m-3721 -248 c-83 -219 -212 -571
-256 -700 l-39 -115 6 -165 c13 -403 33 -607 59 -601 5 2 12 -1 15 -7 10 -14
71 -33 71 -21 0 6 9 8 19 4 18 -5 60 9 124 42 15 8 37 16 48 18 12 3 30 12 41
22 18 16 20 16 41 -8 26 -29 27 -77 1 -184 -11 -47 -77 -235 -83 -235 -4 0
-13 -16 -20 -36 -7 -19 -38 -58 -68 -87 -31 -29 -75 -70 -97 -91 -34 -34 -48
-40 -83 -40 -24 -1 -43 -5 -43 -9 0 -4 -10 -2 -22 4 -13 7 -24 12 -25 11 -8
-5 -23 -1 -23 7 0 5 8 8 18 7 13 -1 17 6 15 29 -2 35 -11 248 -22 500 -4 99
-7 306 -5 460 2 177 0 274 -6 264 -5 -9 -75 -213 -156 -453 -81 -240 -148
-435 -151 -433 -4 4 73 249 87 277 4 9 11 31 15 50 4 19 11 41 16 50 17 33
149 439 149 459 0 12 4 20 9 17 5 -3 11 11 15 32 3 20 12 49 19 63 8 14 17 39
21 55 4 16 16 54 28 84 11 30 26 71 34 90 7 19 27 82 44 140 18 58 38 119 46
137 8 17 14 36 14 42 0 6 5 19 10 29 14 24 80 201 80 215 0 13 102 228 106
224 2 -2 -21 -68 -52 -147z m-1806 -366 c66 -42 87 -62 97 -93 l7 -22 -39 19
c-49 26 -133 100 -133 118 0 20 4 18 68 -22z m7101 -291 c58 -65 75 -129 68
-257 -4 -73 -12 -122 -31 -177 -30 -86 -110 -232 -164 -298 l-35 -43 -18 48
c-10 26 -17 49 -16 50 1 1 16 9 34 18 41 21 48 34 69 136 23 115 15 278 -21
418 -15 57 -25 104 -23 105 2 1 21 12 43 23 22 12 43 22 47 23 3 1 25 -20 47
-46z m-4412 -542 c20 -71 1 -292 -36 -446 -17 -66 -33 -141 -36 -167 -4 -30
-10 -45 -18 -42 -7 2 -26 -24 -46 -61 -33 -64 -63 -91 -112 -100 -20 -4 -20
-3 -5 75 21 101 24 214 15 538 l-5 183 29 25 c17 14 43 28 59 31 15 3 30 9 33
13 3 4 30 0 60 -8 45 -13 57 -20 62 -41z m-1546 -701 c-11 -30 -20 -48 -20
-40 -1 19 33 114 36 103 2 -5 -5 -33 -16 -63z m2304 -190 l6 -106 -33 -50
c-42 -66 -85 -96 -130 -92 -19 1 -35 7 -36 12 -12 91 -5 215 15 266 3 8 7 21
9 29 3 14 45 52 93 82 25 16 27 15 47 -10 18 -21 23 -44 29 -131z m-2354 39
c-34 -96 -41 -95 -10 2 11 35 23 70 25 78 2 8 7 12 9 9 3 -2 -8 -42 -24 -89z
m2363 -223 c-3 -15 -8 -25 -11 -23 -2 3 -1 17 3 31 3 15 8 25 11 23 2 -3 1
-17 -3 -31z m-3425 8 c13 8 8 -60 -11 -154 -6 -30 -12 -62 -14 -70 -1 -8 -20
-89 -43 -180 -106 -430 -134 -551 -175 -755 -25 -121 -56 -274 -69 -340 -14
-66 -30 -160 -37 -210 -7 -49 -16 -97 -21 -105 -4 -8 -17 -76 -28 -150 -12
-74 -43 -277 -70 -450 -71 -451 -93 -610 -87 -626 3 -8 1 -26 -5 -41 -6 -15
-19 -93 -29 -173 -30 -224 -51 -362 -60 -395 -5 -16 -11 -43 -15 -59 -5 -25
-7 -27 -18 -12 -16 22 -20 171 -8 321 17 216 48 537 61 630 5 39 19 144 30
235 11 91 27 201 36 245 8 44 16 103 19 130 11 131 25 272 36 351 7 57 8 93 1
108 -18 39 4 210 32 245 8 11 8 13 -1 7 -9 -5 -13 0 -13 13 0 12 6 21 13 21 8
0 18 23 24 58 14 70 68 331 90 432 9 41 19 80 23 85 4 6 11 33 15 60 4 28 10
52 13 55 7 5 45 145 64 233 6 26 15 47 19 47 5 0 9 9 9 20 0 11 8 46 19 78 10
31 31 98 46 147 15 50 31 92 35 95 4 3 10 15 14 28 11 32 78 95 87 81 4 -6 12
-8 18 -5z m827 -490 c-8 -21 -15 -34 -15 -28 -1 15 20 76 25 71 2 -2 -2 -21
-10 -43z m-1359 -1176 c-3 -8 -6 -5 -6 6 -1 11 2 17 5 13 3 -3 4 -12 1 -19z"/>
<path d="M5922 29935 c-2 -21 -4 -40 -5 -44 -5 -16 11 -14 31 5 l23 22 -23 27
-24 27 -2 -37z"/>
<path d="M6143 29903 c-13 -5 -83 -69 -83 -76 0 -6 74 -57 82 -57 6 0 21 41
31 87 6 25 -12 53 -30 46z"/>
<path d="M2443 21913 c-7 -2 -13 -18 -13 -34 0 -16 -4 -29 -8 -29 -29 0 -30
-127 -2 -228 5 -18 7 -39 4 -46 -7 -18 20 -77 53 -113 47 -52 120 -55 131 -5
6 32 -39 246 -59 277 -3 6 -12 32 -19 59 -13 47 -57 127 -69 125 -3 0 -12 -3
-18 -6z"/>
<path d="M11912 33503 c-29 -12 -32 -16 -21 -29 12 -15 60 -43 76 -45 5 -1 18
-5 31 -10 34 -13 75 -7 91 14 7 10 20 16 28 12 9 -3 22 0 29 6 11 9 24 5 57
-16 23 -16 59 -39 79 -53 21 -13 35 -28 33 -32 -3 -5 7 -13 23 -19 15 -7 40
-19 55 -27 27 -15 30 -15 52 6 24 23 24 60 -1 60 -8 0 -14 4 -14 8 0 5 -18 16
-40 26 -22 10 -40 22 -40 27 0 6 -6 9 -12 7 -15 -2 -47 8 -108 35 -54 24 -100
32 -100 18 0 -16 -76 -13 -93 4 -8 8 -16 12 -19 10 -2 -2 -19 0 -38 4 -23 5
-46 3 -68 -6z"/>
<path d="M7540 33465 c-10 -12 -10 -19 -2 -27 9 -9 15 -7 26 7 23 32 0 49 -24
20z"/>
<path d="M7609 33453 c-13 -15 -12 -15 9 -4 23 12 28 21 13 21 -5 0 -15 -7
-22 -17z"/>
<path d="M11030 33426 c-126 -24 -147 -35 -212 -105 -55 -60 -101 -146 -112
-211 -1 -8 -6 -24 -11 -35 -5 -10 -9 -60 -9 -110 -1 -85 1 -93 31 -141 50 -78
130 -144 204 -167 117 -38 155 -41 333 -21 87 9 168 64 221 149 25 39 25 41
37 168 12 130 -2 208 -55 295 -93 155 -236 215 -427 178z m151 -78 c105 -36
196 -132 224 -239 21 -79 22 -187 2 -229 -41 -85 -149 -156 -253 -167 -80 -9
-171 12 -219 50 -128 102 -161 199 -120 359 22 85 43 130 74 156 33 27 87 59
116 70 41 14 134 15 176 0z"/>
<path d="M11065 33263 c-95 -39 -142 -102 -152 -207 -5 -54 -2 -70 18 -111 28
-56 77 -97 142 -119 68 -23 115 -20 178 12 88 44 124 139 103 270 -5 33 -19
56 -53 93 -39 42 -55 52 -106 64 -75 18 -81 18 -130 -2z m194 -196 c6 -8 8
-17 4 -20 -13 -13 -31 -7 -36 13 -6 23 14 27 32 7z"/>
<path d="M10150 33304 c0 -9 28 -35 37 -34 4 1 9 -4 11 -10 3 -8 -7 -9 -33 -4
-25 4 -36 3 -32 -3 10 -16 67 -24 88 -13 27 15 24 27 -13 50 -32 19 -58 26
-58 14z"/>
<path d="M12590 33265 c13 -14 26 -25 28 -25 3 0 -5 11 -18 25 -13 14 -26 25
-28 25 -3 0 5 -11 18 -25z"/>
<path d="M8710 33270 c19 -13 30 -13 30 0 0 6 -10 10 -22 10 -19 0 -20 -2 -8
-10z"/>
<path d="M12260 33250 c0 -23 38 -80 54 -80 14 0 32 48 21 58 -3 3 -5 -2 -5
-11 0 -27 -23 -19 -47 16 -13 17 -23 25 -23 17z"/>
<path d="M12101 33244 c-2 -21 26 -47 43 -41 24 10 19 27 -8 27 -13 0 -27 6
-29 13 -3 6 -6 7 -6 1z"/>
<path d="M10006 33159 c3 -5 12 -9 20 -9 8 0 14 -4 14 -9 0 -5 9 -11 20 -14
11 -3 20 -9 19 -14 -5 -27 3 -43 21 -43 53 0 -14 92 -70 96 -16 1 -27 -2 -24
-7z"/>
<path d="M11693 33146 c4 -10 10 -28 13 -41 7 -28 44 -30 44 -3 0 10 -4 18
-10 18 -5 0 -20 10 -32 22 -17 17 -20 18 -15 4z"/>
<path d="M11930 33111 c-12 -23 -13 -88 -2 -95 4 -2 14 -1 22 4 11 7 11 11 1
24 -9 10 -11 29 -8 51 6 39 3 44 -13 16z"/>
<path d="M13775 33055 c3 -33 9 -80 11 -104 3 -24 7 -49 11 -55 3 -6 -4 -1
-16 11 -21 22 -51 22 -51 -1 0 -6 -5 -3 -11 7 -5 9 -8 20 -6 25 3 4 -6 18 -19
32 l-24 25 0 -23 c0 -26 -2 -26 -40 -7 -25 13 -29 13 -34 -1 -3 -8 -11 -12
-17 -8 -8 4 -9 3 -5 -4 3 -6 -2 -16 -13 -21 -14 -8 -20 -7 -25 4 -3 8 -10 15
-16 15 -7 0 -8 -6 -1 -19 10 -18 27 -79 37 -136 l6 -30 -21 19 c-12 11 -35 44
-52 73 -26 45 -34 52 -54 47 -12 -3 -26 -1 -29 5 -4 6 -19 11 -33 11 -19 0
-23 -3 -16 -12 6 -7 9 -38 7 -68 -3 -69 -3 -68 -13 -51 -7 11 -10 9 -16 -8 -8
-26 -15 -26 -41 2 -24 25 -74 34 -74 14 0 -8 -2 -9 -8 -1 -9 15 -68 45 -74 38
-3 -2 -11 2 -18 11 -7 8 -17 15 -22 15 -9 0 -13 2 -69 50 -20 16 -43 30 -52
30 -8 0 -29 13 -46 29 -18 17 -38 28 -47 24 -9 -3 -12 0 -9 9 3 8 0 19 -7 25
-16 13 -99 33 -109 27 -4 -2 -19 0 -32 5 -20 8 -29 6 -42 -9 -17 -18 -16 -21
16 -52 18 -18 34 -40 36 -48 2 -12 8 -117 13 -242 0 -4 19 -1 41 7 50 18 49
18 49 4 0 -15 -83 -141 -108 -163 -19 -16 -23 -17 -37 -3 -18 19 -19 34 -1 68
12 24 12 25 -10 21 -13 -2 -24 -12 -25 -21 -2 -54 -20 -91 -44 -91 -7 0 -18
-7 -25 -15 -17 -20 -29 -10 -23 18 4 17 3 19 -6 11 -7 -6 -11 -24 -9 -40 2
-24 7 -28 26 -26 12 2 22 -2 22 -7 0 -6 -4 -11 -10 -11 -5 0 -10 -16 -10 -36
0 -20 -7 -64 -16 -98 -11 -41 -14 -82 -10 -123 4 -52 3 -61 -9 -56 -9 3 -15
-1 -15 -8 0 -8 -11 -2 -25 14 -27 30 -35 33 -53 15 -10 -10 -6 -18 19 -39 24
-20 30 -30 25 -47 -12 -37 -81 -21 -111 25 -15 22 -17 22 -39 8 -13 -9 -30
-13 -39 -10 -8 4 -18 2 -22 -4 -3 -6 -1 -11 4 -11 6 0 11 -6 11 -14 0 -25 20
-30 112 -28 100 3 159 21 182 58 13 19 22 22 45 18 20 -4 30 -1 34 10 7 18
-13 22 -29 6 -18 -18 -39 19 -39 71 0 32 7 56 21 75 35 48 43 41 46 -37 3 -63
6 -73 23 -75 10 -2 26 2 33 9 15 12 21 14 70 23 17 4 32 10 32 15 0 5 6 9 14
9 8 0 45 24 84 54 39 30 88 65 110 77 39 23 40 24 26 51 -16 32 -12 33 49 16
26 -6 52 -8 63 -3 10 5 22 9 27 10 4 2 9 3 12 4 3 2 25 2 50 2 82 0 77 3 60
-31 -9 -16 -11 -30 -6 -30 9 0 26 48 22 63 -1 5 9 25 21 45 22 36 22 36 28 12
4 -14 5 -40 2 -57 -2 -19 1 -33 7 -33 6 0 15 -9 21 -21 18 -33 -12 -49 -81
-42 -49 5 -64 1 -121 -25 -55 -27 -101 -57 -154 -101 -6 -5 -30 -19 -54 -31
-24 -12 -39 -25 -33 -28 5 -4 9 -17 8 -30 -1 -15 10 -33 33 -54 33 -29 39 -30
91 -24 55 6 96 13 96 16 0 1 10 3 23 6 39 7 107 66 135 116 18 32 34 48 47 48
11 0 20 5 20 10 0 22 29 8 68 -32 23 -23 42 -46 42 -51 0 -4 5 -5 10 -2 6 3
10 0 10 -7 1 -19 41 -45 82 -53 29 -6 38 -3 47 12 10 17 10 16 11 -4 0 -13 5
-23 12 -23 6 0 34 -11 62 -24 28 -14 77 -35 108 -48 47 -19 56 -27 52 -43 -5
-22 32 -45 73 -45 31 0 85 28 78 40 -4 6 2 10 12 10 22 0 43 18 43 37 0 7 -9
13 -20 13 -28 0 -25 17 10 47 37 31 38 43 3 43 l-28 0 21 18 c17 14 21 27 20
70 -2 54 10 65 29 24 5 -12 15 -22 20 -22 19 0 46 25 49 44 1 9 8 21 15 25 17
11 25 75 13 109 -7 19 -6 34 1 48 13 23 13 172 0 185 -7 7 -18 -1 -34 -21 -13
-18 -29 -38 -36 -45 -7 -7 -10 -15 -7 -17 6 -6 -16 -68 -24 -68 -4 0 -16 7
-27 16 -16 12 -18 18 -7 34 14 24 16 47 3 52 -6 2 -11 22 -12 46 -2 23 -5 42
-8 42 -4 0 -15 7 -25 15 -16 12 -17 17 -6 30 16 20 32 19 56 -3 10 -10 27 -21
37 -25 15 -6 17 2 17 74 0 76 -7 101 -47 168 -7 11 -15 -11 -18 -47 -3 -42
-29 -91 -49 -93 -6 0 -21 -2 -33 -5 -22 -4 -22 -3 -7 39 18 54 34 88 53 110 8
9 12 19 9 22 -14 14 -54 13 -69 -1 -10 -9 -22 -13 -28 -10 -5 3 -11 1 -13 -6
-6 -17 -25 -2 -32 26 -9 36 -49 101 -54 88 -2 -7 -7 -10 -12 -7 -4 2 -15 -4
-25 -15 -24 -26 -42 -25 -48 3 -4 12 -18 38 -33 57 l-26 35 7 -60z m-945 -70
c0 -13 -34 -55 -44 -55 -10 0 -7 60 5 82 11 21 12 21 25 3 8 -10 14 -24 14
-30z m425 -416 c41 -83 43 -93 28 -104 -42 -31 -103 33 -103 109 0 43 13 86
26 86 2 0 25 -41 49 -91z m-143 2 c7 -14 24 -44 38 -65 17 -28 21 -41 12 -44
-6 -2 -12 -10 -12 -18 0 -43 -82 17 -101 73 -13 40 -14 81 -3 115 7 22 7 22
30 -7 12 -15 28 -40 36 -54z m-147 -26 c20 -30 33 -60 29 -67 -4 -6 -3 -8 3
-5 6 4 16 0 22 -7 10 -12 8 -13 -11 -8 -22 5 -22 5 -5 -12 9 -10 17 -22 17
-27 0 -14 -33 -11 -58 7 -22 15 -23 15 -16 -10 8 -32 -4 -99 -16 -91 -5 3 -12
1 -15 -5 -5 -8 -11 -8 -20 0 -10 8 -15 6 -20 -10 -4 -12 -9 -19 -12 -16 -4 3
-12 1 -20 -5 -10 -9 -16 -3 -29 27 -20 47 -15 118 11 158 18 26 20 27 32 10 7
-10 13 -29 14 -43 0 -26 0 -26 9 -3 5 12 15 25 23 28 9 3 12 22 9 69 -3 40 0
65 6 65 5 0 26 -25 47 -55z m-197 -167 c18 -72 24 -138 13 -138 -6 0 -11 -7
-11 -15 0 -27 -37 1 -49 36 -15 44 -14 95 4 129 21 41 30 38 43 -12z m782 -78
c-6 -12 -22 -25 -36 -30 -33 -13 -34 -13 -34 5 0 25 23 44 53 45 25 0 27 -2
17 -20z"/>
<path d="M7160 32990 c-8 -6 -28 -10 -45 -10 -21 0 -42 -12 -69 -37 l-38 -36
23 -13 c18 -9 29 -9 44 -1 11 6 22 12 25 13 24 5 42 21 60 51 23 39 23 47 0
33z"/>
<path d="M11730 32957 c0 -29 33 -42 51 -21 9 11 8 14 -4 14 -9 0 -23 7 -31
16 -15 14 -16 13 -16 -9z"/>
<path d="M11926 32948 c-20 -28 -20 -48 -3 -73 10 -13 16 -15 21 -6 4 6 2 18
-4 26 -9 11 -9 23 -2 45 13 36 9 38 -12 8z"/>
<path d="M12454 32929 c-3 -6 -2 -15 4 -21 12 -12 42 -4 42 12 0 6 -4 8 -10 5
-5 -3 -10 -1 -10 4 0 14 -17 14 -26 0z"/>
<path d="M9953 32922 c-15 -10 -27 -52 -14 -52 23 0 41 13 41 30 0 22 -12 31
-27 22z"/>
<path d="M9848 32893 c7 -3 16 -2 19 1 4 3 -2 6 -13 5 -11 0 -14 -3 -6 -6z"/>
<path d="M12147 32882 c-21 -23 -23 -92 -4 -92 22 0 27 11 14 31 -9 14 -9 26
0 49 13 35 12 36 -10 12z"/>
<path d="M9888 32883 c6 -2 18 -2 25 0 6 3 1 5 -13 5 -14 0 -19 -2 -12 -5z"/>
<path d="M10249 32879 c-11 -7 -11 -9 4 -9 9 0 17 -4 17 -10 0 -5 6 -10 13
-10 7 0 13 -9 14 -20 1 -13 -2 -18 -9 -14 -7 4 -8 2 -4 -4 10 -17 36 -15 43 3
11 29 -52 81 -78 64z"/>
<path d="M7950 32800 c0 -9 31 -30 44 -30 13 0 5 28 -10 34 -23 9 -34 7 -34
-4z"/>
<path d="M11937 32730 c-35 -41 -52 -49 -60 -27 -4 8 -6 7 -6 -3 -1 -20 19
-40 39 -39 12 0 77 109 65 109 -2 0 -19 -18 -38 -40z"/>
<path d="M12552 32758 c-15 -15 -15 -35 -1 -44 6 -4 9 1 8 12 -2 11 0 25 4 32
10 15 5 16 -11 0z"/>
<path d="M10360 32741 c0 -6 5 -11 10 -11 6 0 10 -7 10 -15 0 -8 7 -15 15 -15
18 0 18 -5 4 -31 -9 -18 -8 -20 12 -17 31 4 33 19 6 59 -22 33 -57 51 -57 30z"/>
<path d="M12242 32717 c-26 -27 -29 -67 -6 -67 10 0 13 6 9 18 -3 11 3 30 16
45 25 33 11 36 -19 4z"/>
<path d="M6498 32687 c-37 -46 -99 -186 -97 -217 0 -3 -4 -17 -10 -32 -10 -27
-6 -58 8 -58 5 0 14 19 22 43 7 23 19 53 26 67 7 14 13 34 13 44 0 11 11 38
24 60 21 36 45 117 35 116 -2 -1 -12 -11 -21 -23z"/>
<path d="M10117 32693 c-13 -12 -7 -33 8 -33 8 0 15 9 15 20 0 20 -11 26 -23
13z"/>
<path d="M11615 32680 c-19 -8 -19 -9 3 -9 12 -1 22 4 22 9 0 6 -1 10 -2 9 -2
0 -12 -4 -23 -9z"/>
<path d="M10684 32663 c4 -8 1 -13 -8 -13 -9 0 -16 -5 -16 -10 0 -7 -6 -7 -20
0 -11 6 -20 8 -20 5 0 -10 70 -36 80 -30 15 9 12 31 -7 46 -11 10 -14 10 -9 2z"/>
<path d="M9990 32644 c0 -11 5 -14 16 -10 9 3 27 6 40 6 13 0 24 5 24 10 0 6
-18 10 -40 10 -30 0 -40 -4 -40 -16z"/>
<path d="M10000 32596 c0 -7 9 -24 19 -37 17 -22 21 -22 45 -9 30 16 26 23
-26 45 -32 13 -38 13 -38 1z"/>
<path d="M10860 32591 c46 -27 98 -41 168 -46 72 -6 48 5 -78 35 -52 12 -102
24 -110 26 -8 3 1 -4 20 -15z"/>
<path d="M10226 32583 c-12 -12 -6 -33 9 -33 8 0 15 6 15 14 0 17 -14 28 -24
19z"/>
<path d="M12046 32558 c3 -4 11 -8 19 -8 8 0 16 4 19 8 2 4 -6 8 -19 8 -13 0
-21 -4 -19 -8z"/>
<path d="M10883 32533 c-10 -21 -10 -24 3 -19 9 3 18 6 20 6 2 0 4 6 4 14 0
26 -15 25 -27 -1z"/>
<path d="M7557 32533 c-33 -5 -31 -23 4 -40 51 -24 74 -25 103 -2 l29 22 -44
14 c-24 7 -48 12 -54 11 -5 0 -23 -3 -38 -5z"/>
<path d="M7710 32530 c0 -5 5 -10 10 -10 6 0 10 5 10 10 0 6 -4 10 -10 10 -5
0 -10 -4 -10 -10z"/>
<path d="M10470 32510 c0 -13 5 -18 15 -14 8 4 15 12 15 20 0 8 -7 14 -15 14
-8 0 -15 -9 -15 -20z"/>
<path d="M11804 32477 c5 -39 -10 -43 -39 -11 -27 29 -28 28 -25 -30 3 -57 35
-109 52 -83 4 7 5 24 2 40 -4 20 -2 27 10 27 18 0 20 33 5 65 -8 17 -9 16 -5
-8z"/>
<path d="M11990 32456 c-20 -60 15 -94 37 -35 13 33 9 55 -12 63 -9 3 -18 -7
-25 -28z"/>
<path d="M9992 32460 c-16 -26 -15 -30 7 -30 23 0 34 25 17 39 -8 7 -15 4 -24
-9z"/>
<path d="M11610 32463 c0 -7 7 -13 15 -13 8 0 15 6 15 13 0 8 -7 14 -15 14 -8
0 -15 -6 -15 -14z"/>
<path d="M6210 32450 c-19 -11 -42 -19 -51 -20 -27 0 -41 -24 -26 -44 23 -31
69 -1 111 72 9 15 8 15 -34 -8z"/>
<path d="M12201 32439 c-22 -24 -27 -54 -11 -64 18 -11 32 5 19 21 -9 11 -8
19 6 34 10 11 16 23 13 26 -3 3 -15 -5 -27 -17z"/>
<path d="M10682 32425 c-10 -21 -9 -25 4 -25 18 0 30 28 17 41 -6 6 -14 0 -21
-16z"/>
<path d="M6002 32430 c-45 -11 -77 -42 -92 -93 -6 -23 -16 -47 -21 -53 -5 -6
-6 -26 -3 -43 l7 -33 35 36 c19 20 38 36 42 36 26 0 71 69 63 98 -4 16 1 23
21 28 24 6 37 24 17 24 -5 0 -15 2 -23 4 -7 2 -28 0 -46 -4z"/>
<path d="M11275 32432 c-13 -9 -17 -32 -6 -32 13 0 33 28 24 33 -5 3 -13 3
-18 -1z"/>
<path d="M13170 32390 c0 -20 13 -25 55 -20 11 1 22 4 25 7 8 7 -22 21 -36 16
-6 -2 -15 0 -19 6 -10 18 -25 12 -25 -9z"/>
<path d="M10972 32334 c-1 -17 2 -24 11 -21 15 5 16 39 2 44 -6 2 -12 -8 -13
-23z"/>
<path d="M12350 32340 c0 -13 7 -20 19 -20 30 0 33 16 6 28 -22 10 -25 9 -25
-8z"/>
<path d="M11456 32343 c-12 -12 -6 -33 9 -33 8 0 15 6 15 14 0 17 -14 28 -24
19z"/>
<path d="M11338 32275 c5 -30 26 -28 30 3 3 16 -2 22 -16 22 -15 0 -18 -5 -14
-25z"/>
<path d="M11853 32264 c-9 -19 -8 -24 3 -24 18 0 30 28 18 40 -5 5 -14 -1 -21
-16z"/>
<path d="M9676 32265 c4 -8 7 -15 9 -15 1 0 8 7 15 15 10 13 9 15 -8 15 -15 0
-20 -5 -16 -15z"/>
<path d="M7042 32258 c-7 -7 -12 -18 -12 -24 0 -22 -17 -25 -65 -13 -39 10
-48 9 -64 -5 -10 -9 -22 -16 -27 -15 -5 1 -22 1 -38 0 l-29 -1 23 -20 c16 -13
37 -20 67 -20 73 0 131 -19 154 -51 21 -29 59 -40 59 -16 0 7 -9 20 -20 30
-11 9 -20 24 -20 32 0 15 36 34 75 40 47 6 81 19 98 36 17 18 16 19 -45 21
-99 3 -107 3 -114 11 -11 11 -29 8 -42 -5z"/>
<path d="M7497 32264 c-4 -4 -7 -23 -7 -42 0 -20 3 -32 8 -28 4 4 7 11 7 14 0
4 3 12 6 17 8 13 -4 48 -14 39z"/>
<path d="M5808 32253 c-10 -2 -18 -8 -18 -11 0 -12 19 -37 23 -32 6 6 19 50
15 49 -2 -1 -11 -3 -20 -6z"/>
<path d="M10473 32144 c-26 -25 -47 -50 -45 -55 1 -6 -7 -8 -20 -4 -20 6 -18
2 13 -30 l35 -36 104 25 c150 38 155 37 170 -30 10 -43 -7 -66 -60 -84 -23 -8
-37 -17 -32 -22 8 -8 107 27 194 69 37 18 51 50 26 57 -68 19 -98 30 -98 37 0
10 -66 29 -95 27 -30 -1 -106 11 -119 19 -6 4 -22 6 -36 5 l-25 -3 28 22 c26
20 37 49 18 49 -6 0 -32 -21 -58 -46z"/>
<path d="M13403 32183 c-19 -7 -16 -33 4 -33 9 0 13 3 10 7 -4 3 -2 12 4 20
12 13 5 16 -18 6z"/>
<path d="M12146 32145 c-4 -10 1 -15 14 -15 11 0 20 7 20 15 0 8 -6 15 -14 15
-8 0 -16 -7 -20 -15z"/>
<path d="M12010 32125 c0 -9 -7 -18 -16 -22 -13 -5 -13 -7 -2 -14 9 -6 7 -9
-9 -9 -13 0 -23 -5 -23 -11 0 -6 7 -8 16 -5 9 3 25 6 37 7 12 0 16 3 9 6 -10
4 -9 8 4 18 10 7 15 19 11 29 -8 20 -27 21 -27 1z"/>
<path d="M10227 32124 c-4 -4 -7 -17 -7 -28 0 -19 1 -19 17 -3 12 11 14 20 7
27 -6 6 -13 7 -17 4z"/>
<path d="M13455 32120 c-3 -5 -1 -10 4 -10 6 0 11 5 11 10 0 6 -2 10 -4 10 -3
0 -8 -4 -11 -10z"/>
<path d="M9800 32059 c-12 -28 -11 -32 6 -42 10 -6 30 -13 44 -15 21 -2 29 4
43 33 10 20 15 41 12 46 -4 5 -26 9 -49 9 -39 0 -45 -3 -56 -31z"/>
<path d="M13593 32083 c-18 -6 -16 -23 1 -23 17 0 30 16 19 23 -5 2 -14 2 -20
0z"/>
<path d="M11355 32045 c-38 -17 -99 -68 -70 -58 11 3 31 13 44 22 45 29 59 24
72 -22 21 -71 29 -78 66 -60 53 25 50 71 -4 58 -17 -4 -25 3 -40 32 -21 44
-28 47 -68 28z"/>
<path d="M13430 32046 c0 -8 7 -16 15 -20 17 -6 18 -4 9 18 -8 20 -24 21 -24
2z"/>
<path d="M10948 32034 c-4 -3 5 -22 18 -41 13 -20 25 -44 25 -54 1 -11 3 -23
4 -29 1 -5 3 -13 4 -16 0 -4 8 -1 17 6 18 16 11 80 -12 118 -14 21 -43 29 -56
16z"/>
<path d="M12120 32020 c-8 -16 -8 -20 3 -20 8 0 20 6 26 14 9 10 8 15 -4 19
-9 4 -19 -2 -25 -13z"/>
<path d="M13730 32030 c0 -5 5 -10 11 -10 5 0 7 5 4 10 -3 6 -8 10 -11 10 -2
0 -4 -4 -4 -10z"/>
<path d="M11700 32021 c0 -5 4 -11 8 -13 13 -5 72 -95 72 -109 0 -7 -14 -27
-31 -45 -33 -34 -23 -49 21 -31 14 6 32 11 41 11 8 1 30 18 49 39 l33 38 -29
-3 c-26 -3 -29 -1 -26 25 4 36 -15 59 -40 51 -13 -4 -27 3 -43 20 -24 25 -55
35 -55 17z"/>
<path d="M12307 32005 c-3 -16 0 -24 7 -22 14 4 21 47 8 47 -5 0 -12 -11 -15
-25z"/>
<path d="M12890 32021 c0 -6 5 -13 10 -16 6 -3 10 1 10 9 0 9 -4 16 -10 16 -5
0 -10 -4 -10 -9z"/>
<path d="M13663 32018 c2 -7 10 -12 16 -10 6 1 11 -3 11 -10 0 -6 3 -8 6 -5 8
8 -14 37 -28 37 -5 0 -8 -6 -5 -12z"/>
<path d="M9455 32010 c-4 -6 3 -10 14 -10 25 0 27 6 6 13 -8 4 -17 2 -20 -3z"/>
<path d="M12425 32000 c-17 -18 -17 -20 -1 -20 9 0 19 7 23 15 9 25 -2 27 -22
5z"/>
<path d="M3696 31981 c3 -13 7 -30 8 -37 4 -25 16 -27 16 -3 0 14 -7 34 -16
45 -15 18 -15 18 -8 -5z"/>
<path d="M10002 31963 c-34 -34 -38 -62 -4 -29 9 9 26 23 37 31 13 9 17 17 10
23 -6 6 -22 -3 -43 -25z"/>
<path d="M13440 31989 c0 -5 5 -7 10 -4 6 3 10 8 10 11 0 2 -4 4 -10 4 -5 0
-10 -5 -10 -11z"/>
<path d="M12017 31964 c-13 -13 -7 -24 14 -24 11 0 19 5 17 12 -5 14 -22 21
-31 12z"/>
<path d="M12178 31924 c-39 -21 -38 -54 2 -54 48 0 100 26 100 49 0 18 -6 21
-37 21 -21 -1 -50 -8 -65 -16z"/>
<path d="M9362 31918 c-15 -18 -20 -51 -8 -58 14 -8 35 33 27 53 -6 16 -9 17
-19 5z"/>
<path d="M11992 31893 c-18 -18 -52 -38 -74 -43 -22 -6 -38 -14 -35 -16 8 -9
61 -13 72 -6 10 6 23 10 55 16 8 1 28 8 43 14 16 7 34 12 41 12 14 0 54 39 43
41 -13 3 -27 7 -29 8 -2 1 -21 3 -43 4 -33 2 -45 -2 -73 -30z"/>
<path d="M3146 31874 c-9 -8 -20 -13 -26 -9 -5 3 -18 -3 -30 -15 -22 -22 -11
-27 21 -9 18 9 19 9 7 -11 -7 -11 -29 -25 -50 -30 -28 -8 -35 -14 -31 -29 4
-16 15 -19 75 -19 39 -1 74 -5 77 -9 3 -4 33 -28 66 -52 33 -25 62 -48 65 -51
11 -15 50 -31 50 -21 0 6 12 8 28 5 45 -9 36 18 -27 88 -31 33 -59 69 -63 80
-8 19 -15 19 -91 2 -26 -5 -28 -4 -22 14 5 18 -18 82 -30 82 -2 0 -11 -7 -19
-16z"/>
<path d="M13955 31879 c-4 -5 -16 -7 -28 -4 -17 5 -15 2 8 -14 45 -31 161 -23
128 10 -15 15 -100 21 -108 8z"/>
<path d="M9339 31793 c-4 -54 -2 -93 6 -93 13 0 17 87 5 95 -6 3 -10 3 -11 -2z"/>
<path d="M13915 31790 c-3 -5 -1 -10 4 -10 6 0 11 5 11 10 0 6 -2 10 -4 10 -3
0 -8 -4 -11 -10z"/>
<path d="M4209 31686 c12 -14 11 -20 -8 -39 -11 -13 -21 -26 -21 -30 0 -13
101 -58 145 -64 43 -5 45 -5 45 20 0 30 -21 54 -65 74 -16 7 -37 17 -45 22
-61 33 -66 35 -51 17z"/>
<path d="M11413 31693 c-7 -2 -13 -8 -13 -13 0 -10 60 -4 72 8 9 9 -40 13 -59
5z"/>
<path d="M4540 31618 c0 -28 7 -42 31 -62 17 -14 36 -26 42 -26 6 0 22 -11 36
-24 25 -24 41 -30 70 -27 21 2 -32 55 -101 102 -31 22 -62 47 -67 57 -8 14
-10 10 -11 -20z"/>
<path d="M9255 31639 c-4 -6 -5 -12 -2 -15 2 -3 7 2 10 11 7 17 1 20 -8 4z"/>
<path d="M2814 31618 c-3 -5 1 -17 9 -26 9 -9 19 -30 23 -47 l7 -30 -28 25
c-26 23 -27 24 -16 3 15 -29 29 -37 45 -24 7 6 16 8 19 4 17 -17 5 56 -12 74
-11 12 -18 23 -15 25 2 3 -3 5 -11 5 -9 0 -18 -4 -21 -9z"/>
<path d="M2955 31575 c-5 -2 -22 -6 -37 -9 -25 -6 -26 -9 -18 -32 6 -14 22
-35 36 -47 14 -12 43 -36 63 -54 33 -28 37 -29 38 -12 1 11 -2 17 -7 14 -10
-6 -44 65 -35 73 3 3 -5 17 -17 31 l-23 25 33 -23 c18 -13 36 -20 40 -16 11
11 -54 55 -73 50z"/>
<path d="M9245 31543 c5 -14 25 -115 25 -130 0 -2 4 -3 9 -3 5 0 7 19 5 43 -3
23 -5 57 -5 75 -1 25 -5 32 -21 32 -15 0 -18 -4 -13 -17z"/>
<path d="M9461 31501 c-10 -7 -10 -10 -1 -16 6 -4 16 -3 22 3 13 13 -4 23 -21
13z"/>
<path d="M11510 31474 c0 -29 12 -37 35 -20 21 15 10 40 -17 42 -13 1 -18 -5
-18 -22z"/>
<path d="M9316 31327 c-3 -13 -2 -37 3 -53 4 -16 6 -69 4 -119 -3 -72 -1 -87
9 -77 17 17 18 246 2 262 -9 9 -13 5 -18 -13z"/>
<path d="M3720 31270 c-1 -32 -23 -117 -33 -126 -13 -13 -7 -34 7 -28 16 6 36
-24 36 -55 0 -11 4 -22 9 -26 11 -6 7 21 -10 72 -14 45 -5 84 19 76 14 -5 15
-3 5 8 -7 7 -13 24 -14 39 0 14 -4 34 -9 45 -8 18 -9 18 -10 -5z"/>
<path d="M4152 31168 c16 -26 31 -48 32 -48 2 0 -2 16 -8 35 -6 19 -14 35 -18
35 -5 0 -8 6 -8 13 0 8 -6 14 -14 14 -10 0 -5 -15 16 -49z"/>
<path d="M2760 31199 c1 -19 31 -55 54 -63 17 -6 17 -5 5 11 -38 46 -59 65
-59 52z"/>
<path d="M2590 31150 c0 -5 7 -7 15 -4 8 4 15 8 15 10 0 2 -7 4 -15 4 -8 0
-15 -4 -15 -10z"/>
<path d="M3410 31127 c0 -17 21 -45 69 -94 l42 -41 -8 36 c-4 21 -7 47 -8 59
0 17 -10 26 -40 38 -49 18 -55 19 -55 2z"/>
<path d="M3528 31093 c7 -3 16 -2 19 1 4 3 -2 6 -13 5 -11 0 -14 -3 -6 -6z"/>
<path d="M2571 30918 c-22 -66 -28 -110 -9 -70 6 12 16 22 22 22 7 0 11 22 11
55 0 30 -1 55 -2 55 0 0 -11 -28 -22 -62z"/>
<path d="M2139 30933 c-13 -16 -12 -17 4 -4 16 13 21 21 13 21 -2 0 -10 -8
-17 -17z"/>
<path d="M3782 30934 c10 -10 20 -16 22 -13 3 3 -5 11 -17 18 -21 13 -21 12
-5 -5z"/>
<path d="M3945 30815 c20 -16 86 -38 93 -30 11 10 -12 25 -39 25 -17 0 -40 5
-52 11 -21 10 -21 10 -2 -6z"/>
<path d="M3729 30638 c-17 -34 -200 -208 -218 -208 -7 0 -9 -10 -5 -27 12 -51
23 -68 76 -125 29 -31 67 -73 83 -94 17 -21 38 -47 48 -58 l18 -21 -5 25 c-2
14 -11 49 -19 78 -9 29 -11 49 -5 46 6 -4 8 2 4 17 -7 23 -6 23 8 6 8 -10 33
-21 55 -24 25 -4 41 -11 41 -19 0 -20 46 -17 67 5 10 10 30 26 46 36 17 11 27
26 27 42 0 33 -29 132 -46 159 -16 23 -10 35 14 28 18 -5 -46 28 -88 46 -64
26 -85 46 -84 79 2 37 -1 39 -17 9z"/>
<path d="M2770 30603 c0 -6 -43 -55 -95 -108 -96 -97 -95 -114 1 -23 58 55
110 125 100 135 -3 3 -6 2 -6 -4z"/>
<path d="M3995 30510 l-30 -6 34 -12 c46 -16 114 -16 109 1 -5 14 -71 25 -113
17z"/>
<path d="M3253 30411 c-29 -29 -53 -56 -53 -61 0 -5 -9 -12 -20 -15 -31 -10
-24 -27 28 -77 128 -125 194 -179 263 -217 l37 -20 7 65 c5 45 3 69 -5 79 -7
8 -10 15 -7 15 3 0 1 16 -3 36 -5 20 -4 49 1 67 9 29 7 35 -26 63 -19 17 -64
44 -100 59 -35 16 -65 35 -67 43 -2 9 -22 -4 -55 -37z"/>
<path d="M1852 30406 c-51 -55 -58 -79 -35 -110 21 -29 60 -37 45 -10 -10 19
-1 70 23 127 8 20 14 37 11 37 -2 0 -22 -20 -44 -44z"/>
<path d="M2788 30428 c-2 -6 -1 -32 3 -57 4 -25 5 -59 2 -76 -6 -38 28 -83 46
-61 12 15 -3 112 -20 131 -5 5 -9 21 -9 36 0 29 -15 48 -22 27z"/>
<path d="M2102 30107 c-7 -16 -12 -32 -12 -36 0 -5 -6 -14 -14 -20 -15 -13
-29 -64 -15 -55 20 12 60 95 57 116 -4 22 -5 22 -16 -5z"/>
<path d="M1823 30058 c-15 -19 -23 -48 -14 -48 9 0 51 43 51 53 0 12 -27 8
-37 -5z"/>
<path d="M1324 29934 c-14 -52 -15 -70 -6 -85 10 -16 6 -23 -28 -50 -44 -36
-54 -55 -44 -93 6 -27 32 -34 51 -15 8 8 13 0 18 -30 7 -42 25 -57 25 -21 0
11 0 21 -1 23 0 1 4 15 10 30 6 15 13 42 16 60 4 17 15 51 25 74 10 24 17 43
14 43 -2 0 5 18 16 40 37 73 23 90 -34 40 -38 -34 -51 -27 -41 20 12 57 -3 30
-21 -36z"/>
<path d="M1813 29807 c-18 -21 -33 -47 -33 -58 0 -10 -6 -22 -13 -26 -8 -4
-22 -21 -33 -38 -18 -30 -18 -30 1 -14 11 9 34 24 52 33 17 8 41 32 54 53 13
21 26 40 30 43 3 3 9 16 13 30 5 17 4 20 -2 12 -11 -16 -22 -17 -31 -4 -3 5
-21 -9 -38 -31z"/>
<path d="M2496 29680 c8 -43 24 -63 24 -29 0 13 -7 33 -16 44 -13 18 -14 17
-8 -15z"/>
<path d="M1685 29613 l-17 -28 23 22 c12 12 20 25 17 28 -3 3 -13 -7 -23 -22z"/>
<path d="M2525 29600 c3 -5 8 -10 11 -10 2 0 4 5 4 10 0 6 -5 10 -11 10 -5 0
-7 -4 -4 -10z"/>
<path d="M1302 29359 c-32 -68 -62 -133 -66 -143 -15 -43 27 9 51 64 96 212
107 273 15 79z"/>
<path d="M1687 29347 c-21 -87 -21 -91 -3 -84 10 4 16 -2 19 -16 4 -18 5 -17
6 6 0 15 4 27 9 27 4 0 18 9 31 19 l24 18 -35 51 -34 51 -17 -72z"/>
<path d="M5010 29314 c-18 -25 -119 -94 -138 -94 -23 0 -6 -258 18 -285 21
-22 41 -198 39 -335 -1 -49 9 -128 29 -225 17 -82 35 -185 41 -228 5 -43 13
-82 17 -85 4 -4 4 4 1 18 -3 14 -9 169 -12 345 -4 176 -9 323 -11 326 -5 8 -5
275 -1 374 2 40 11 86 21 107 10 20 16 51 14 70 -3 32 -3 32 -18 12z"/>
<path d="M8886 29214 c-12 -31 -5 -44 35 -64 23 -12 43 -19 45 -17 8 7 -14 55
-34 74 -25 24 -39 26 -46 7z"/>
<path d="M1711 29204 c0 -11 3 -14 6 -6 3 7 2 16 -1 19 -3 4 -6 -2 -5 -13z"/>
<path d="M1005 29189 c-4 -6 -5 -12 -2 -15 2 -3 7 2 10 11 7 17 1 20 -8 4z"/>
<path d="M1721 29154 c0 -11 3 -14 6 -6 3 7 2 16 -1 19 -3 4 -6 -2 -5 -13z"/>
<path d="M9118 29003 c-8 -10 -7 -17 4 -26 8 -7 42 -46 76 -88 58 -71 62 -79
62 -127 0 -28 6 -71 14 -94 8 -24 16 -53 18 -66 3 -23 3 -23 37 7 19 17 38 31
43 31 4 0 8 8 8 17 0 9 2 14 6 11 3 -3 22 -1 42 4 20 5 53 10 72 11 31 2 35 5
33 27 0 14 -4 73 -8 132 l-8 106 -29 -10 c-16 -6 -67 -8 -113 -6 -74 4 -95 10
-165 44 -66 33 -83 38 -92 27z"/>
<path d="M8943 28936 c-17 -6 -48 -24 -69 -41 -20 -16 -44 -35 -53 -42 -10 -8
-12 -12 -4 -13 7 0 22 -8 33 -17 11 -10 24 -18 28 -18 4 0 16 -8 27 -18 11 -9
22 -16 25 -15 3 1 20 -7 37 -17 24 -14 37 -33 49 -70 18 -53 37 -74 67 -75 13
0 17 5 13 18 -17 53 -36 187 -36 250 0 39 -3 72 -7 72 -5 -1 -19 -7 -33 -14
-20 -11 -26 -12 -35 -1 -8 10 -17 10 -42 1z"/>
<path d="M8464 28844 c4 -10 10 -34 13 -51 3 -18 9 -33 13 -33 4 0 10 -15 13
-32 9 -55 12 -62 37 -98 14 -19 24 -36 22 -38 -1 -1 1 -10 6 -19 8 -13 11 -10
17 18 4 19 10 39 14 44 4 6 14 30 21 55 16 55 38 99 56 118 8 7 14 17 14 21 0
5 -42 11 -92 14 -51 3 -104 9 -117 13 -21 6 -23 5 -17 -12z"/>
<path d="M1530 28752 c0 -7 -3 -11 -7 -10 -42 11 -170 -104 -173 -154 -1 -23
102 23 149 65 32 30 56 86 42 100 -8 8 -11 8 -11 -1z"/>
<path d="M7560 28646 c0 -7 -14 -24 -31 -37 -30 -23 -59 -76 -59 -108 0 -9 -6
-28 -14 -42 -7 -14 -16 -68 -19 -120 -6 -85 -4 -99 16 -139 12 -25 27 -45 32
-45 6 -1 20 -4 32 -9 31 -10 60 8 79 52 24 52 24 52 24 207 -1 173 -3 186 -31
224 -26 35 -29 37 -29 17z"/>
<path d="M4411 28635 c0 -11 6 -47 13 -80 8 -33 14 -51 15 -40 0 11 -6 47 -13
80 -8 33 -14 51 -15 40z"/>
<path d="M536 28533 c-9 -10 -7 -236 3 -252 12 -18 19 38 20 156 0 85 -6 112
-23 96z"/>
<path d="M6756 28485 c-3 -8 -12 -15 -21 -15 -8 0 -15 -4 -15 -9 0 -5 -10 -12
-22 -16 -13 -3 -18 -9 -11 -11 20 -9 93 34 87 51 -8 19 -10 19 -18 0z"/>
<path d="M7398 28479 c-10 -5 -18 -19 -18 -30 0 -11 -6 -22 -14 -25 -8 -3 -20
-20 -27 -37 -7 -18 -22 -43 -35 -57 -26 -28 -34 -54 -18 -55 12 0 44 -30 44
-42 1 -4 20 -22 43 -40 47 -36 73 -30 57 12 -5 13 -10 82 -12 154 -2 72 -3
131 -3 131 0 -1 -8 -5 -17 -11z"/>
<path d="M4440 28473 c0 -5 6 -32 14 -59 53 -191 58 -213 49 -229 -9 -15 8
-64 48 -135 24 -43 60 -127 65 -149 34 -166 44 -190 140 -306 64 -79 85 -112
78 -128 -6 -17 -43 -29 -58 -19 -14 9 -66 8 -89 -3 -13 -5 -33 2 -70 28 -28
20 -52 35 -53 34 -1 -1 8 -51 21 -112 33 -162 56 -325 62 -453 3 -62 8 -111
10 -109 2 2 5 33 8 68 3 35 7 80 10 99 3 19 7 67 10 105 5 75 25 264 30 292 2
10 4 21 4 26 1 4 16 7 34 7 18 0 54 7 79 16 37 12 47 20 52 44 4 23 10 29 28
27 23 -2 27 5 45 89 7 29 6 54 -3 84 -7 24 -11 47 -9 51 9 14 -16 66 -33 68
-50 5 -77 2 -87 -13 -7 -9 -14 -13 -17 -10 -3 2 -8 -9 -11 -26 -4 -16 -10 -30
-15 -30 -12 0 -75 95 -109 165 -48 101 -135 260 -146 266 -5 4 -7 11 -3 17 14
24 17 94 5 129 -7 21 -13 43 -14 48 -4 33 -47 118 -62 123 -7 2 -13 0 -13 -5z"/>
<path d="M6591 28437 c-16 -16 -14 -27 7 -27 31 0 43 14 23 27 -14 9 -21 9
-30 0z"/>
<path d="M6530 28411 c0 -5 -16 -33 -36 -62 -61 -90 -88 -214 -98 -452 -3 -59
-8 -112 -11 -116 -3 -5 7 -18 22 -29 l28 -20 -18 -37 c-10 -21 -16 -39 -15
-41 8 -7 109 58 123 80 9 13 17 41 19 63 1 22 6 45 11 52 14 23 26 321 13 321
-4 0 -6 26 -2 57 5 48 4 55 -8 45 -12 -10 -14 -3 -13 46 1 31 3 62 4 67 6 18
1 35 -9 35 -5 0 -10 -4 -10 -9z"/>
<path d="M6822 28370 c14 -24 31 -46 38 -48 16 -6 -18 53 -44 76 -16 14 -15 8
6 -28z"/>
<path d="M4210 28286 c0 -2 8 -10 18 -17 15 -13 16 -12 3 4 -13 16 -21 21 -21
13z"/>
<path d="M7178 28276 c-21 -16 -24 -38 -4 -30 10 4 32 46 23 44 -1 0 -10 -7
-19 -14z"/>
<path d="M7285 28257 c-4 -10 -5 -21 -1 -24 10 -10 18 4 13 24 -4 17 -4 17
-12 0z"/>
<path d="M465 28171 c-3 -12 -10 -21 -15 -21 -4 0 -7 -8 -6 -17 2 -10 -3 -35
-10 -57 -19 -52 -17 -58 4 -16 24 49 46 119 40 126 -4 3 -9 -4 -13 -15z"/>
<path d="M6675 27955 c-4 -11 -11 -29 -15 -40 -20 -46 -43 -135 -37 -141 9
-10 87 44 86 59 0 6 -6 41 -13 77 -10 48 -15 60 -21 45z"/>
<path d="M6261 27873 c32 -44 56 -66 84 -80 22 -11 14 0 -30 41 -61 58 -77 69
-54 39z"/>
<path d="M7506 27562 c-6 -74 -20 -151 -42 -237 -19 -72 -21 -84 -14 -80 26
16 80 248 80 340 0 88 -17 72 -24 -23z"/>
<path d="M7025 27530 c-24 -5 -26 -7 -10 -11 11 -2 36 -2 55 1 31 5 32 6 10
11 -14 2 -38 2 -55 -1z"/>
<path d="M6370 27368 c0 -22 60 -108 87 -126 22 -14 22 -13 10 19 -14 39 -97
130 -97 107z"/>
<path d="M892 27205 c-12 -7 -29 -21 -37 -31 -8 -11 -15 -16 -15 -11 0 4 -8
-1 -17 -11 -22 -23 -46 -63 -41 -68 8 -8 103 73 121 104 10 17 17 32 15 31 -1
-1 -13 -7 -26 -14z"/>
<path d="M5774 26889 c-6 -11 43 -35 53 -25 8 8 -12 29 -32 32 -8 1 -17 -2
-21 -7z"/>
<path d="M4640 26680 c0 -10 -7 -34 -15 -52 -15 -30 -14 -37 3 -88 l20 -55 0
108 c0 59 -2 107 -4 107 -2 0 -4 -9 -4 -20z"/>
<path d="M6320 26621 c0 -9 46 -48 80 -66 13 -8 13 -7 0 11 -20 26 -63 64 -72
64 -5 0 -8 -4 -8 -9z"/>
<path d="M4537 26543 c-11 -10 -8 -43 3 -43 12 0 31 35 23 44 -8 8 -18 8 -26
-1z"/>
<path d="M5739 25868 c-8 -7 -23 -24 -34 -38 -12 -16 -6 -12 18 9 20 19 37 36
37 38 0 6 -6 3 -21 -9z"/>
<path d="M6250 25519 c0 -11 4 -18 10 -14 5 3 7 12 3 20 -7 21 -13 19 -13 -6z"/>
<path d="M4277 25473 c-4 -3 -27 -5 -52 -5 -25 1 -45 -1 -45 -5 0 -5 -15 -15
-32 -23 l-33 -15 34 -3 c38 -4 113 21 131 44 12 14 9 20 -3 7z"/>
<path d="M4050 25430 c20 -13 33 -13 25 0 -3 6 -14 10 -23 10 -15 0 -15 -2 -2
-10z"/>
<path d="M6073 24830 c-2 -22 6 -35 28 -54 47 -40 62 -33 36 15 -41 76 -61 88
-64 39z"/>
<path d="M5940 24729 c0 -4 -13 -10 -30 -14 -25 -5 -38 -21 -45 -55 -1 -3 -9
-23 -19 -45 -9 -22 -20 -52 -23 -68 -3 -15 -10 -30 -14 -33 -27 -16 7 -209 45
-259 15 -20 15 -20 16 1 0 41 41 181 76 264 20 47 42 110 48 141 l12 55 -33
11 c-18 5 -33 7 -33 2z"/>
<path d="M7015 23990 c-10 -11 -20 -18 -22 -16 -2 2 -25 -16 -50 -40 -25 -24
-52 -44 -58 -44 -15 0 -108 -51 -102 -56 2 -2 25 2 51 10 53 16 142 81 181
132 29 37 29 46 0 14z"/>
<path d="M7257 23983 c-12 -19 114 -125 130 -110 20 20 -81 118 -106 103 -5
-3 -11 -1 -13 6 -3 8 -6 9 -11 1z"/>
<path d="M6540 23894 c0 -6 92 -64 102 -64 10 0 41 60 34 67 -3 3 -16 -1 -29
-10 -18 -12 -27 -13 -36 -4 -6 6 -11 8 -11 5 0 -4 -13 -3 -30 2 -16 5 -30 7
-30 4z"/>
<path d="M7386 23472 l-19 -27 24 22 c12 12 21 24 18 27 -2 2 -13 -8 -23 -22z"/>
<path d="M8002 23439 c-33 -37 -43 -55 -40 -76 2 -16 8 -27 15 -26 6 2 15 -7
18 -18 6 -18 9 -15 26 18 27 54 40 107 32 131 -7 17 -12 15 -51 -29z"/>
<path d="M8103 23264 c-7 -7 -13 -19 -13 -26 0 -9 -2 -10 -8 -1 -5 8 -15 4
-35 -11 l-28 -23 26 -32 c38 -44 62 -56 80 -37 8 8 15 23 15 33 0 10 4 24 9
32 6 10 5 25 -5 42 -18 36 -26 40 -41 23z"/>
<path d="M6910 22961 c0 -6 14 -17 30 -26 31 -16 41 -7 15 15 -8 7 -15 9 -15
5 0 -4 -7 -2 -15 5 -10 8 -15 9 -15 1z"/>
<path d="M211 22489 c1 -152 17 -510 25 -561 6 -43 19 -49 27 -15 7 25 -19
517 -32 620 -5 37 -11 71 -15 74 -3 3 -5 -50 -5 -118z"/>
<path d="M201 20864 c0 -11 3 -14 6 -6 3 7 2 16 -1 19 -3 4 -6 -2 -5 -13z"/>
<path d="M212 20775 c0 -16 2 -22 5 -12 2 9 2 23 0 30 -3 6 -5 -1 -5 -18z"/>
<path d="M223 20685 c0 -22 2 -30 4 -17 2 12 2 30 0 40 -3 9 -5 -1 -4 -23z"/>
<path d="M233 20585 c0 -22 2 -30 4 -17 2 12 2 30 0 40 -3 9 -5 -1 -4 -23z"/>
<path d="M242 20480 c0 -19 2 -27 5 -17 2 9 2 25 0 35 -3 9 -5 1 -5 -18z"/>
<path d="M453 20284 c-13 -14 -23 -36 -23 -49 0 -13 -5 -27 -10 -30 -14 -9 -4
-270 11 -307 14 -33 22 -34 65 -8 21 14 35 32 40 53 14 63 1 302 -17 313 -5 3
-9 13 -9 24 0 10 -7 21 -16 24 -20 8 -15 10 -41 -20z"/>
<path d="M4532 17455 c-1 -11 -5 -38 -8 -60 -5 -31 -4 -37 5 -29 8 7 11 30 8
60 -2 27 -4 40 -5 29z"/>
<path d="M4518 17310 c-2 -22 0 -40 4 -40 5 0 8 18 8 40 0 22 -2 40 -4 40 -2
0 -6 -18 -8 -40z"/>
<path d="M4191 17187 c-18 -22 -31 -67 -41 -141 -17 -117 -20 -139 -30 -196
-25 -140 -25 -134 -1 -120 13 6 20 14 17 17 -3 3 3 18 14 33 11 15 36 58 56
96 32 61 37 79 39 149 2 44 1 96 -2 116 -5 40 -35 66 -52 46z"/>
<path d="M721 16884 c0 -11 3 -14 6 -6 3 7 2 16 -1 19 -3 4 -6 -2 -5 -13z"/>
<path d="M731 16844 c0 -11 3 -14 6 -6 3 7 2 16 -1 19 -3 4 -6 -2 -5 -13z"/>
<path d="M741 16804 c0 -11 3 -14 6 -6 3 7 2 16 -1 19 -3 4 -6 -2 -5 -13z"/>
<path d="M752 16765 c0 -11 4 -31 8 -45 6 -20 8 -21 8 -5 0 11 -4 31 -8 45 -6
20 -8 21 -8 5z"/>
<path d="M772 16675 c0 -11 4 -33 8 -50 7 -27 8 -27 8 -5 0 14 -4 36 -8 50 -6
20 -8 21 -8 5z"/>
<path d="M3641 14899 c-45 -105 -115 -280 -144 -359 l-35 -95 0 -242 c0 -134
-3 -257 -7 -275 -5 -22 -4 -30 3 -23 21 21 112 445 157 730 47 295 49 319 26
264z"/>
<path d="M2332 5370 c0 -19 2 -27 5 -17 2 9 2 25 0 35 -3 9 -5 1 -5 -18z"/>
<path d="M2341 5274 c0 -11 3 -14 6 -6 3 7 2 16 -1 19 -3 4 -6 -2 -5 -13z"/>
<path d="M3960 1526 c0 -22 141 -397 182 -485 35 -75 41 -81 86 -81 37 0 43
20 16 59 -9 13 -35 60 -57 105 -22 44 -43 83 -46 86 -3 3 -20 32 -37 65 -17
33 -52 98 -77 144 -26 46 -47 90 -47 97 0 8 -4 14 -10 14 -5 0 -10 -2 -10 -4z"/>
<path d="M4037 653 c9 -27 22 -55 30 -63 12 -13 13 -13 7 5 -4 11 -11 26 -17
33 -5 6 -7 12 -3 12 4 0 0 14 -9 30 -23 44 -26 37 -8 -17z"/>
</g>
</svg>
